%TF.GenerationSoftware,KiCad,Pcbnew,(6.0.0)*%
%TF.CreationDate,2022-12-15T23:46:57-05:00*%
%TF.ProjectId,Adafruit LED Sequin,41646166-7275-4697-9420-4c4544205365,rev?*%
%TF.SameCoordinates,Original*%
%TF.FileFunction,Soldermask,Top*%
%TF.FilePolarity,Negative*%
%FSLAX46Y46*%
G04 Gerber Fmt 4.6, Leading zero omitted, Abs format (unit mm)*
G04 Created by KiCad (PCBNEW (6.0.0)) date 2022-12-15 23:46:57*
%MOMM*%
%LPD*%
G01*
G04 APERTURE LIST*
%ADD10R,1.600000X0.850000*%
G04 APERTURE END LIST*
D10*
%TO.C,D1*%
X146750000Y-104125000D03*
X146750000Y-105875000D03*
X150250000Y-105875000D03*
X150250000Y-104125000D03*
%TD*%
G36*
X145542121Y-103220002D02*
G01*
X145588614Y-103273658D01*
X145600000Y-103326000D01*
X145600000Y-106674000D01*
X145579998Y-106742121D01*
X145526342Y-106788614D01*
X145474000Y-106800000D01*
X145305507Y-106800000D01*
X145294526Y-106799521D01*
X145067876Y-106779692D01*
X145046246Y-106775878D01*
X144831819Y-106718422D01*
X144811180Y-106710910D01*
X144609990Y-106617093D01*
X144590969Y-106606111D01*
X144409124Y-106478782D01*
X144392300Y-106464664D01*
X144235336Y-106307700D01*
X144221218Y-106290876D01*
X144093889Y-106109031D01*
X144082907Y-106090010D01*
X143989090Y-105888820D01*
X143981578Y-105868181D01*
X143924122Y-105653754D01*
X143920308Y-105632124D01*
X143900479Y-105405474D01*
X143900000Y-105394493D01*
X143900000Y-104605507D01*
X143900479Y-104594526D01*
X143920308Y-104367876D01*
X143924122Y-104346246D01*
X143981578Y-104131819D01*
X143989090Y-104111180D01*
X144082907Y-103909990D01*
X144093889Y-103890969D01*
X144221218Y-103709124D01*
X144235336Y-103692300D01*
X144392300Y-103535336D01*
X144409124Y-103521218D01*
X144590969Y-103393889D01*
X144609990Y-103382907D01*
X144811180Y-103289090D01*
X144831819Y-103281578D01*
X145046246Y-103224122D01*
X145067876Y-103220308D01*
X145294526Y-103200479D01*
X145305507Y-103200000D01*
X145474000Y-103200000D01*
X145542121Y-103220002D01*
G37*
G36*
X151705474Y-103200479D02*
G01*
X151932124Y-103220308D01*
X151953754Y-103224122D01*
X152168181Y-103281578D01*
X152188820Y-103289090D01*
X152390010Y-103382907D01*
X152409031Y-103393889D01*
X152590876Y-103521218D01*
X152607700Y-103535336D01*
X152764664Y-103692300D01*
X152778782Y-103709124D01*
X152906111Y-103890969D01*
X152917093Y-103909990D01*
X153010910Y-104111180D01*
X153018422Y-104131819D01*
X153075878Y-104346246D01*
X153079692Y-104367876D01*
X153099521Y-104594526D01*
X153100000Y-104605507D01*
X153100000Y-105394493D01*
X153099521Y-105405474D01*
X153079692Y-105632124D01*
X153075878Y-105653754D01*
X153018422Y-105868181D01*
X153010910Y-105888820D01*
X152917093Y-106090010D01*
X152906111Y-106109031D01*
X152778782Y-106290876D01*
X152764664Y-106307700D01*
X152607700Y-106464664D01*
X152590876Y-106478782D01*
X152409031Y-106606111D01*
X152390010Y-106617093D01*
X152188820Y-106710910D01*
X152168181Y-106718422D01*
X151953754Y-106775878D01*
X151932124Y-106779692D01*
X151705474Y-106799521D01*
X151694493Y-106800000D01*
X151526000Y-106800000D01*
X151457879Y-106779998D01*
X151411386Y-106726342D01*
X151400000Y-106674000D01*
X151400000Y-103326000D01*
X151420002Y-103257879D01*
X151473658Y-103211386D01*
X151526000Y-103200000D01*
X151694493Y-103200000D01*
X151705474Y-103200479D01*
G37*
M02*
