%TF.GenerationSoftware,KiCad,Pcbnew,(6.0.0)*%
%TF.CreationDate,2022-12-15T23:46:57-05:00*%
%TF.ProjectId,Adafruit LED Sequin,41646166-7275-4697-9420-4c4544205365,rev?*%
%TF.SameCoordinates,Original*%
%TF.FileFunction,Legend,Bot*%
%TF.FilePolarity,Positive*%
%FSLAX46Y46*%
G04 Gerber Fmt 4.6, Leading zero omitted, Abs format (unit mm)*
G04 Created by KiCad (PCBNEW (6.0.0)) date 2022-12-15 23:46:57*
%MOMM*%
%LPD*%
G01*
G04 APERTURE LIST*
%ADD10C,0.100000*%
G04 APERTURE END LIST*
D10*
X146607857Y-104142857D02*
X147065000Y-104142857D01*
X146836428Y-104371428D02*
X146836428Y-103914285D01*
X150392142Y-104371428D02*
X150392142Y-103771428D01*
X150106428Y-104371428D02*
X150106428Y-103771428D01*
X149763571Y-104371428D01*
X149763571Y-103771428D01*
X150207857Y-105942857D02*
X150665000Y-105942857D01*
X147477857Y-105571428D02*
X147363571Y-105571428D01*
X147306428Y-105600000D01*
X147249285Y-105657142D01*
X147220714Y-105771428D01*
X147220714Y-105971428D01*
X147249285Y-106085714D01*
X147306428Y-106142857D01*
X147363571Y-106171428D01*
X147477857Y-106171428D01*
X147535000Y-106142857D01*
X147592142Y-106085714D01*
X147620714Y-105971428D01*
X147620714Y-105771428D01*
X147592142Y-105657142D01*
X147535000Y-105600000D01*
X147477857Y-105571428D01*
X146963571Y-105571428D02*
X146963571Y-106057142D01*
X146935000Y-106114285D01*
X146906428Y-106142857D01*
X146849285Y-106171428D01*
X146735000Y-106171428D01*
X146677857Y-106142857D01*
X146649285Y-106114285D01*
X146620714Y-106057142D01*
X146620714Y-105571428D01*
X146420714Y-105571428D02*
X146077857Y-105571428D01*
X146249285Y-106171428D02*
X146249285Y-105571428D01*
X148745238Y-104571190D02*
X148911904Y-104333095D01*
X149030952Y-104571190D02*
X149030952Y-104071190D01*
X148840476Y-104071190D01*
X148792857Y-104095000D01*
X148769047Y-104118809D01*
X148745238Y-104166428D01*
X148745238Y-104237857D01*
X148769047Y-104285476D01*
X148792857Y-104309285D01*
X148840476Y-104333095D01*
X149030952Y-104333095D01*
X148269047Y-104095000D02*
X148316666Y-104071190D01*
X148388095Y-104071190D01*
X148459523Y-104095000D01*
X148507142Y-104142619D01*
X148530952Y-104190238D01*
X148554761Y-104285476D01*
X148554761Y-104356904D01*
X148530952Y-104452142D01*
X148507142Y-104499761D01*
X148459523Y-104547380D01*
X148388095Y-104571190D01*
X148340476Y-104571190D01*
X148269047Y-104547380D01*
X148245238Y-104523571D01*
X148245238Y-104356904D01*
X148340476Y-104356904D01*
X147864285Y-104309285D02*
X147792857Y-104333095D01*
X147769047Y-104356904D01*
X147745238Y-104404523D01*
X147745238Y-104475952D01*
X147769047Y-104523571D01*
X147792857Y-104547380D01*
X147840476Y-104571190D01*
X148030952Y-104571190D01*
X148030952Y-104071190D01*
X147864285Y-104071190D01*
X147816666Y-104095000D01*
X147792857Y-104118809D01*
X147769047Y-104166428D01*
X147769047Y-104214047D01*
X147792857Y-104261666D01*
X147816666Y-104285476D01*
X147864285Y-104309285D01*
X148030952Y-104309285D01*
X149554761Y-105352380D02*
X149483333Y-105376190D01*
X149364285Y-105376190D01*
X149316666Y-105352380D01*
X149292857Y-105328571D01*
X149269047Y-105280952D01*
X149269047Y-105233333D01*
X149292857Y-105185714D01*
X149316666Y-105161904D01*
X149364285Y-105138095D01*
X149459523Y-105114285D01*
X149507142Y-105090476D01*
X149530952Y-105066666D01*
X149554761Y-105019047D01*
X149554761Y-104971428D01*
X149530952Y-104923809D01*
X149507142Y-104900000D01*
X149459523Y-104876190D01*
X149340476Y-104876190D01*
X149269047Y-104900000D01*
X148864285Y-105352380D02*
X148911904Y-105376190D01*
X149007142Y-105376190D01*
X149054761Y-105352380D01*
X149078571Y-105304761D01*
X149078571Y-105114285D01*
X149054761Y-105066666D01*
X149007142Y-105042857D01*
X148911904Y-105042857D01*
X148864285Y-105066666D01*
X148840476Y-105114285D01*
X148840476Y-105161904D01*
X149078571Y-105209523D01*
X148411904Y-105042857D02*
X148411904Y-105542857D01*
X148411904Y-105352380D02*
X148459523Y-105376190D01*
X148554761Y-105376190D01*
X148602380Y-105352380D01*
X148626190Y-105328571D01*
X148650000Y-105280952D01*
X148650000Y-105138095D01*
X148626190Y-105090476D01*
X148602380Y-105066666D01*
X148554761Y-105042857D01*
X148459523Y-105042857D01*
X148411904Y-105066666D01*
X147959523Y-105042857D02*
X147959523Y-105376190D01*
X148173809Y-105042857D02*
X148173809Y-105304761D01*
X148150000Y-105352380D01*
X148102380Y-105376190D01*
X148030952Y-105376190D01*
X147983333Y-105352380D01*
X147959523Y-105328571D01*
X147721428Y-105376190D02*
X147721428Y-105042857D01*
X147721428Y-104876190D02*
X147745238Y-104900000D01*
X147721428Y-104923809D01*
X147697619Y-104900000D01*
X147721428Y-104876190D01*
X147721428Y-104923809D01*
X147483333Y-105042857D02*
X147483333Y-105376190D01*
X147483333Y-105090476D02*
X147459523Y-105066666D01*
X147411904Y-105042857D01*
X147340476Y-105042857D01*
X147292857Y-105066666D01*
X147269047Y-105114285D01*
X147269047Y-105376190D01*
M02*
