%TF.GenerationSoftware,KiCad,Pcbnew,(6.0.0)*%
%TF.CreationDate,2022-12-15T23:46:57-05:00*%
%TF.ProjectId,Adafruit LED Sequin,41646166-7275-4697-9420-4c4544205365,rev?*%
%TF.SameCoordinates,Original*%
%TF.FileFunction,Copper,L2,Bot*%
%TF.FilePolarity,Positive*%
%FSLAX46Y46*%
G04 Gerber Fmt 4.6, Leading zero omitted, Abs format (unit mm)*
G04 Created by KiCad (PCBNEW (6.0.0)) date 2022-12-15 23:46:57*
%MOMM*%
%LPD*%
G01*
G04 APERTURE LIST*
%TA.AperFunction,ViaPad*%
%ADD10C,0.800000*%
%TD*%
G04 APERTURE END LIST*
D10*
%TO.N,/-*%
X151900000Y-105800000D03*
%TO.N,/IN*%
X151900000Y-104200000D03*
%TO.N,/OUT*%
X145100000Y-105800000D03*
%TO.N,/+*%
X145100000Y-104200000D03*
%TD*%
%TA.AperFunction,Conductor*%
%TO.N,/-*%
G36*
X152840175Y-105270002D02*
G01*
X152886668Y-105323658D01*
X152898054Y-105376220D01*
X152898037Y-105385812D01*
X152894857Y-105399642D01*
X152897989Y-105413483D01*
X152897976Y-105420989D01*
X152897588Y-105430655D01*
X152886004Y-105577840D01*
X152882910Y-105597369D01*
X152843583Y-105761175D01*
X152837475Y-105779974D01*
X152773000Y-105935631D01*
X152764030Y-105953236D01*
X152694707Y-106066362D01*
X152675999Y-106096891D01*
X152664383Y-106112879D01*
X152554968Y-106240988D01*
X152540990Y-106254966D01*
X152412879Y-106364383D01*
X152396893Y-106375997D01*
X152253236Y-106464030D01*
X152235631Y-106473000D01*
X152079974Y-106537475D01*
X152061180Y-106543581D01*
X151897365Y-106582911D01*
X151877844Y-106586003D01*
X151729731Y-106597660D01*
X151719632Y-106598048D01*
X151714191Y-106598038D01*
X151700358Y-106594857D01*
X151686514Y-106597990D01*
X151681626Y-106597981D01*
X151663552Y-106600000D01*
X149376000Y-106600000D01*
X149307879Y-106579998D01*
X149261386Y-106526342D01*
X149250000Y-106474000D01*
X149250000Y-105376000D01*
X149270002Y-105307879D01*
X149323658Y-105261386D01*
X149376000Y-105250000D01*
X152772054Y-105250000D01*
X152840175Y-105270002D01*
G37*
%TD.AperFunction*%
%TD*%
%TA.AperFunction,Conductor*%
%TO.N,/+*%
G36*
X147692121Y-103420002D02*
G01*
X147738614Y-103473658D01*
X147750000Y-103526000D01*
X147750000Y-104624000D01*
X147729998Y-104692121D01*
X147676342Y-104738614D01*
X147624000Y-104750000D01*
X144227946Y-104750000D01*
X144159825Y-104729998D01*
X144113332Y-104676342D01*
X144101946Y-104623780D01*
X144101963Y-104614188D01*
X144105143Y-104600358D01*
X144102011Y-104586517D01*
X144102024Y-104579011D01*
X144102412Y-104569345D01*
X144113996Y-104422160D01*
X144117090Y-104402631D01*
X144156417Y-104238825D01*
X144162526Y-104220022D01*
X144192327Y-104148077D01*
X144227000Y-104064369D01*
X144235970Y-104046764D01*
X144324003Y-103903107D01*
X144335617Y-103887121D01*
X144445034Y-103759010D01*
X144459012Y-103745032D01*
X144473375Y-103732765D01*
X144587121Y-103635617D01*
X144603109Y-103624001D01*
X144746764Y-103535970D01*
X144764369Y-103527000D01*
X144920026Y-103462525D01*
X144938820Y-103456419D01*
X145102635Y-103417089D01*
X145122156Y-103413997D01*
X145270269Y-103402340D01*
X145280368Y-103401952D01*
X145285809Y-103401962D01*
X145299642Y-103405143D01*
X145313486Y-103402010D01*
X145318374Y-103402019D01*
X145336448Y-103400000D01*
X147624000Y-103400000D01*
X147692121Y-103420002D01*
G37*
%TD.AperFunction*%
%TD*%
%TA.AperFunction,Conductor*%
%TO.N,/OUT*%
G36*
X147692121Y-105220002D02*
G01*
X147738614Y-105273658D01*
X147750000Y-105326000D01*
X147750000Y-106474000D01*
X147729998Y-106542121D01*
X147676342Y-106588614D01*
X147624000Y-106600000D01*
X145337024Y-106600000D01*
X145319818Y-106598047D01*
X145314188Y-106598037D01*
X145300358Y-106594857D01*
X145286517Y-106597989D01*
X145279011Y-106597976D01*
X145269354Y-106597588D01*
X145122156Y-106586003D01*
X145102635Y-106582911D01*
X144938820Y-106543581D01*
X144920026Y-106537475D01*
X144764369Y-106473000D01*
X144746764Y-106464030D01*
X144603107Y-106375997D01*
X144587121Y-106364383D01*
X144459010Y-106254966D01*
X144445032Y-106240988D01*
X144335617Y-106112879D01*
X144324001Y-106096891D01*
X144305293Y-106066362D01*
X144235970Y-105953236D01*
X144227000Y-105935631D01*
X144162525Y-105779974D01*
X144156417Y-105761175D01*
X144117090Y-105597369D01*
X144113996Y-105577840D01*
X144102340Y-105429742D01*
X144101952Y-105419632D01*
X144101962Y-105414191D01*
X144105143Y-105400358D01*
X144102010Y-105386514D01*
X144102019Y-105381626D01*
X144100000Y-105363552D01*
X144100000Y-105326000D01*
X144120002Y-105257879D01*
X144173658Y-105211386D01*
X144226000Y-105200000D01*
X147624000Y-105200000D01*
X147692121Y-105220002D01*
G37*
%TD.AperFunction*%
%TD*%
%TA.AperFunction,Conductor*%
%TO.N,/IN*%
G36*
X151680182Y-103401953D02*
G01*
X151685812Y-103401963D01*
X151699642Y-103405143D01*
X151713483Y-103402011D01*
X151720989Y-103402024D01*
X151730646Y-103402412D01*
X151877844Y-103413997D01*
X151897365Y-103417089D01*
X152061180Y-103456419D01*
X152079974Y-103462525D01*
X152235631Y-103527000D01*
X152253236Y-103535970D01*
X152396891Y-103624001D01*
X152412879Y-103635617D01*
X152526625Y-103732765D01*
X152540988Y-103745032D01*
X152554966Y-103759010D01*
X152664383Y-103887121D01*
X152675997Y-103903107D01*
X152764030Y-104046764D01*
X152773000Y-104064369D01*
X152807673Y-104148077D01*
X152837474Y-104220022D01*
X152843583Y-104238825D01*
X152882910Y-104402631D01*
X152886004Y-104422160D01*
X152897660Y-104570258D01*
X152898048Y-104580368D01*
X152898038Y-104585809D01*
X152894857Y-104599642D01*
X152897989Y-104613484D01*
X152897970Y-104624224D01*
X152877847Y-104692309D01*
X152824108Y-104738707D01*
X152771970Y-104750000D01*
X149376000Y-104750000D01*
X149307879Y-104729998D01*
X149261386Y-104676342D01*
X149250000Y-104624000D01*
X149250000Y-103526000D01*
X149270002Y-103457879D01*
X149323658Y-103411386D01*
X149376000Y-103400000D01*
X151662976Y-103400000D01*
X151680182Y-103401953D01*
G37*
%TD.AperFunction*%
%TD*%
M02*
