%TF.GenerationSoftware,KiCad,Pcbnew,(6.0.0)*%
%TF.CreationDate,2022-12-15T23:51:33-05:00*%
%TF.ProjectId,Adafruit LED Sequin-WithRails,41646166-7275-4697-9420-4c4544205365,rev?*%
%TF.SameCoordinates,Original*%
%TF.FileFunction,Legend,Top*%
%TF.FilePolarity,Positive*%
%FSLAX46Y46*%
G04 Gerber Fmt 4.6, Leading zero omitted, Abs format (unit mm)*
G04 Created by KiCad (PCBNEW (6.0.0)) date 2022-12-15 23:51:33*
%MOMM*%
%LPD*%
G01*
G04 APERTURE LIST*
%ADD10C,0.120000*%
G04 APERTURE END LIST*
D10*
X49899995Y-51199996D02*
X50499995Y-51199996D01*
X50499995Y-57800005D02*
X50499995Y-57200005D01*
X50499995Y-71000023D02*
X50499995Y-70400023D01*
X49899995Y-57800005D02*
X50499995Y-57800005D01*
X50499995Y-64400014D02*
X50499995Y-63800014D01*
X50499995Y-70400023D02*
X49899995Y-71000023D01*
X50499995Y-57200005D02*
X49899995Y-57800005D01*
X49899995Y-71000023D02*
X50499995Y-71000023D01*
X49899995Y-64400014D02*
X50499995Y-64400014D01*
X50499995Y-63800014D02*
X49899995Y-64400014D01*
X50499995Y-51199996D02*
X50499995Y-50599996D01*
X50499995Y-50599996D02*
X49899995Y-51199996D01*
%TO.C,D1*%
X52949995Y-65150014D02*
X52949995Y-64075014D01*
X47049995Y-65150014D02*
X52949995Y-65150014D01*
X47049995Y-61250014D02*
X52949995Y-61250014D01*
X52949995Y-58550005D02*
X52949995Y-57475005D01*
X47049995Y-58550005D02*
X52949995Y-58550005D01*
X47049995Y-54650005D02*
X52949995Y-54650005D01*
X52949995Y-71750023D02*
X52949995Y-70675023D01*
X47049995Y-71750023D02*
X52949995Y-71750023D01*
X47049995Y-67850023D02*
X52949995Y-67850023D01*
X47049995Y-51949996D02*
X52949995Y-51949996D01*
X52949995Y-51949996D02*
X52949995Y-50874996D01*
X47049995Y-48049996D02*
X52949995Y-48049996D01*
%TD*%
M02*
