%TF.GenerationSoftware,KiCad,Pcbnew,(6.0.0)*%
%TF.CreationDate,2022-12-15T23:51:33-05:00*%
%TF.ProjectId,Adafruit LED Sequin-WithRails,41646166-7275-4697-9420-4c4544205365,rev?*%
%TF.SameCoordinates,Original*%
%TF.FileFunction,Copper,L2,Bot*%
%TF.FilePolarity,Positive*%
%FSLAX46Y46*%
G04 Gerber Fmt 4.6, Leading zero omitted, Abs format (unit mm)*
G04 Created by KiCad (PCBNEW (6.0.0)) date 2022-12-15 23:51:33*
%MOMM*%
%LPD*%
G01*
G04 APERTURE LIST*
%TA.AperFunction,ViaPad*%
%ADD10C,0.800000*%
%TD*%
G04 APERTURE END LIST*
D10*
%TO.N,Board_0-/+*%
X46599995Y-49199996D03*
%TO.N,Board_0-/-*%
X53399995Y-50799996D03*
%TO.N,Board_0-/IN*%
X53399995Y-49199996D03*
%TO.N,Board_0-/OUT*%
X46599995Y-50799996D03*
%TO.N,Board_1-/+*%
X46599995Y-55800005D03*
%TO.N,Board_1-/-*%
X53399995Y-57400005D03*
%TO.N,Board_1-/IN*%
X53399995Y-55800005D03*
%TO.N,Board_1-/OUT*%
X46599995Y-57400005D03*
%TO.N,Board_2-/+*%
X46599995Y-62400014D03*
%TO.N,Board_2-/-*%
X53399995Y-64000014D03*
%TO.N,Board_2-/IN*%
X53399995Y-62400014D03*
%TO.N,Board_2-/OUT*%
X46599995Y-64000014D03*
%TO.N,Board_3-/+*%
X46599995Y-69000023D03*
%TO.N,Board_3-/-*%
X53399995Y-70600023D03*
%TO.N,Board_3-/IN*%
X53399995Y-69000023D03*
%TO.N,Board_3-/OUT*%
X46599995Y-70600023D03*
%TD*%
%TA.AperFunction,Conductor*%
%TO.N,Board_2-/OUT*%
G36*
X49192116Y-63420016D02*
G01*
X49238609Y-63473672D01*
X49249995Y-63526014D01*
X49249995Y-64675005D01*
X49229993Y-64743126D01*
X49176337Y-64789619D01*
X49123996Y-64801005D01*
X46829362Y-64801000D01*
X46804225Y-64801000D01*
X46800951Y-64800957D01*
X46740478Y-64799385D01*
X46733870Y-64799040D01*
X46677774Y-64794627D01*
X46671212Y-64793937D01*
X46615429Y-64786594D01*
X46608910Y-64785562D01*
X46553522Y-64775296D01*
X46547073Y-64773925D01*
X46492395Y-64760799D01*
X46486041Y-64759097D01*
X46432055Y-64743105D01*
X46425826Y-64741082D01*
X46372720Y-64722277D01*
X46366607Y-64719930D01*
X46314544Y-64698364D01*
X46308523Y-64695683D01*
X46291206Y-64687423D01*
X46257750Y-64671465D01*
X46251888Y-64668478D01*
X46202401Y-64641608D01*
X46196694Y-64638313D01*
X46148704Y-64608902D01*
X46143176Y-64605312D01*
X46096853Y-64573475D01*
X46091517Y-64569598D01*
X46047592Y-64535894D01*
X46005724Y-64478557D01*
X46001502Y-64407686D01*
X46003578Y-64399829D01*
X46038234Y-64283946D01*
X46040807Y-64275343D01*
X46040990Y-64245455D01*
X46041634Y-64139809D01*
X46041689Y-64130833D01*
X46008629Y-64015156D01*
X46004445Y-64000515D01*
X46004443Y-64000511D01*
X46001978Y-63991885D01*
X45924864Y-63869667D01*
X45816547Y-63774005D01*
X45792643Y-63762782D01*
X45739481Y-63715727D01*
X45720198Y-63647399D01*
X45740917Y-63579493D01*
X45763943Y-63553274D01*
X45778279Y-63540921D01*
X45785079Y-63535062D01*
X45835364Y-63457482D01*
X45889200Y-63411198D01*
X45941096Y-63400014D01*
X49123995Y-63400014D01*
X49192116Y-63420016D01*
G37*
%TD.AperFunction*%
%TD*%
%TA.AperFunction,Conductor*%
%TO.N,Board_0-/-*%
G36*
X54158796Y-50269998D02*
G01*
X54197236Y-50308760D01*
X54210850Y-50330337D01*
X54217578Y-50336279D01*
X54237201Y-50353609D01*
X54275020Y-50413695D01*
X54274350Y-50484688D01*
X54235404Y-50544050D01*
X54205947Y-50562751D01*
X54196838Y-50566893D01*
X54188663Y-50570610D01*
X54181864Y-50576468D01*
X54181860Y-50576471D01*
X54085986Y-50659082D01*
X54085984Y-50659085D01*
X54079186Y-50664942D01*
X54000585Y-50786208D01*
X53998013Y-50794808D01*
X53974840Y-50872293D01*
X53959178Y-50924661D01*
X53959123Y-50933635D01*
X53959123Y-50933637D01*
X53958737Y-50996916D01*
X53958296Y-51069171D01*
X53960763Y-51077802D01*
X53960763Y-51077804D01*
X53996197Y-51201785D01*
X53995685Y-51272779D01*
X53951752Y-51336371D01*
X53908463Y-51369588D01*
X53903136Y-51373459D01*
X53856799Y-51405305D01*
X53851280Y-51408889D01*
X53803292Y-51438297D01*
X53797580Y-51441595D01*
X53748124Y-51468448D01*
X53742258Y-51471437D01*
X53691467Y-51495664D01*
X53685439Y-51498348D01*
X53633398Y-51519904D01*
X53627238Y-51522268D01*
X53574175Y-51541058D01*
X53567901Y-51543097D01*
X53513961Y-51559074D01*
X53507592Y-51560780D01*
X53452907Y-51573909D01*
X53446457Y-51575280D01*
X53433682Y-51577648D01*
X53391087Y-51585542D01*
X53384571Y-51586574D01*
X53328776Y-51593919D01*
X53322214Y-51594609D01*
X53266112Y-51599023D01*
X53259527Y-51599368D01*
X53204649Y-51600805D01*
X53199031Y-51600952D01*
X53195736Y-51600995D01*
X53180279Y-51600995D01*
X50875994Y-51600997D01*
X50807874Y-51580995D01*
X50761381Y-51527339D01*
X50749995Y-51474997D01*
X50749995Y-50375996D01*
X50769997Y-50307875D01*
X50823653Y-50261382D01*
X50875995Y-50249996D01*
X54090675Y-50249996D01*
X54158796Y-50269998D01*
G37*
%TD.AperFunction*%
%TD*%
%TA.AperFunction,Conductor*%
%TO.N,Board_0-/+*%
G36*
X49123995Y-48398998D02*
G01*
X49192116Y-48419000D01*
X49238609Y-48472656D01*
X49249995Y-48524998D01*
X49249995Y-49623996D01*
X49229993Y-49692117D01*
X49176337Y-49738610D01*
X49123995Y-49749996D01*
X45909318Y-49749996D01*
X45841197Y-49729994D01*
X45802757Y-49691233D01*
X45793937Y-49677254D01*
X45793934Y-49677250D01*
X45789144Y-49669659D01*
X45762789Y-49646384D01*
X45724972Y-49586301D01*
X45725641Y-49515307D01*
X45764585Y-49455946D01*
X45794045Y-49437243D01*
X45803147Y-49433105D01*
X45803153Y-49433101D01*
X45811324Y-49429386D01*
X45818123Y-49423528D01*
X45818127Y-49423525D01*
X45914001Y-49340914D01*
X45914003Y-49340911D01*
X45920801Y-49335054D01*
X45999402Y-49213788D01*
X46008104Y-49184692D01*
X46038237Y-49083936D01*
X46038237Y-49083934D01*
X46040809Y-49075335D01*
X46040992Y-49045447D01*
X46041636Y-48939801D01*
X46041691Y-48930825D01*
X46003789Y-48798207D01*
X46004301Y-48727213D01*
X46048231Y-48663623D01*
X46091467Y-48630446D01*
X46096798Y-48626572D01*
X46143175Y-48594696D01*
X46148713Y-48591100D01*
X46196741Y-48561670D01*
X46202453Y-48558372D01*
X46251916Y-48531517D01*
X46257786Y-48528526D01*
X46308604Y-48504289D01*
X46314587Y-48501625D01*
X46366616Y-48480075D01*
X46372723Y-48477731D01*
X46425792Y-48458939D01*
X46432065Y-48456901D01*
X46486042Y-48440913D01*
X46492405Y-48439208D01*
X46547076Y-48426083D01*
X46553497Y-48424717D01*
X46608871Y-48414453D01*
X46615364Y-48413425D01*
X46671193Y-48406073D01*
X46677744Y-48405385D01*
X46705783Y-48403178D01*
X46733817Y-48400971D01*
X46740407Y-48400625D01*
X46800963Y-48399039D01*
X46804262Y-48398996D01*
X46808580Y-48398996D01*
X49123995Y-48398998D01*
G37*
%TD.AperFunction*%
%TD*%
%TA.AperFunction,Conductor*%
%TO.N,Board_1-/-*%
G36*
X54158802Y-56870007D02*
G01*
X54197243Y-56908771D01*
X54210853Y-56930341D01*
X54217581Y-56936283D01*
X54237204Y-56953613D01*
X54275023Y-57013699D01*
X54274353Y-57084692D01*
X54235407Y-57144054D01*
X54205948Y-57162756D01*
X54188665Y-57170614D01*
X54181866Y-57176472D01*
X54181862Y-57176475D01*
X54085988Y-57259086D01*
X54085986Y-57259089D01*
X54079188Y-57264946D01*
X54000587Y-57386212D01*
X53998015Y-57394812D01*
X53974842Y-57472297D01*
X53959180Y-57524665D01*
X53959125Y-57533639D01*
X53959125Y-57533641D01*
X53958739Y-57596920D01*
X53958298Y-57669175D01*
X53996200Y-57801793D01*
X53995688Y-57872786D01*
X53951756Y-57936378D01*
X53908513Y-57969560D01*
X53903177Y-57973436D01*
X53856770Y-58005332D01*
X53851256Y-58008914D01*
X53809938Y-58034232D01*
X53803256Y-58038326D01*
X53797548Y-58041621D01*
X53771993Y-58055496D01*
X53748075Y-58068482D01*
X53742208Y-58071471D01*
X53691462Y-58095675D01*
X53685439Y-58098357D01*
X53633396Y-58119915D01*
X53627234Y-58122280D01*
X53574219Y-58141053D01*
X53567950Y-58143090D01*
X53514007Y-58159070D01*
X53507634Y-58160778D01*
X53452909Y-58173917D01*
X53446456Y-58175289D01*
X53391084Y-58185552D01*
X53384567Y-58186584D01*
X53328806Y-58193925D01*
X53322249Y-58194614D01*
X53266170Y-58199029D01*
X53259580Y-58199375D01*
X53199026Y-58200961D01*
X53195727Y-58201004D01*
X53191409Y-58201004D01*
X50875995Y-58201002D01*
X50807874Y-58181000D01*
X50761381Y-58127344D01*
X50749995Y-58075002D01*
X50749995Y-56976005D01*
X50769997Y-56907884D01*
X50823653Y-56861391D01*
X50875995Y-56850005D01*
X54090681Y-56850005D01*
X54158802Y-56870007D01*
G37*
%TD.AperFunction*%
%TD*%
%TA.AperFunction,Conductor*%
%TO.N,Board_0-/OUT*%
G36*
X49192116Y-50219998D02*
G01*
X49238609Y-50273654D01*
X49249995Y-50325996D01*
X49249995Y-51474998D01*
X49229993Y-51543119D01*
X49176337Y-51589612D01*
X49123995Y-51600998D01*
X46819877Y-51601000D01*
X46804296Y-51601000D01*
X46800990Y-51600957D01*
X46796699Y-51600844D01*
X46740459Y-51599368D01*
X46733884Y-51599023D01*
X46677774Y-51594609D01*
X46671212Y-51593919D01*
X46615429Y-51586576D01*
X46608915Y-51585545D01*
X46570804Y-51578481D01*
X46553524Y-51575278D01*
X46547071Y-51573906D01*
X46492357Y-51560769D01*
X46485986Y-51559062D01*
X46432021Y-51543076D01*
X46425750Y-51541038D01*
X46372753Y-51522271D01*
X46366592Y-51519906D01*
X46314558Y-51498352D01*
X46308548Y-51495677D01*
X46257772Y-51471458D01*
X46251903Y-51468467D01*
X46202449Y-51441617D01*
X46196735Y-51438318D01*
X46148745Y-51408910D01*
X46143213Y-51405317D01*
X46096812Y-51373427D01*
X46091474Y-51369549D01*
X46047596Y-51335880D01*
X46005729Y-51278542D01*
X46001507Y-51207671D01*
X46003583Y-51199815D01*
X46038239Y-51083936D01*
X46038239Y-51083934D01*
X46040811Y-51075335D01*
X46040994Y-51045447D01*
X46041638Y-50939801D01*
X46041693Y-50930825D01*
X46008633Y-50815148D01*
X46004449Y-50800507D01*
X46004447Y-50800503D01*
X46001982Y-50791877D01*
X45924868Y-50669659D01*
X45816551Y-50573997D01*
X45792645Y-50562773D01*
X45739483Y-50515718D01*
X45720200Y-50447390D01*
X45740919Y-50379484D01*
X45763943Y-50353267D01*
X45778277Y-50340916D01*
X45778280Y-50340912D01*
X45785079Y-50335054D01*
X45835371Y-50257463D01*
X45889207Y-50211179D01*
X45941103Y-50199996D01*
X49123995Y-50199996D01*
X49192116Y-50219998D01*
G37*
%TD.AperFunction*%
%TD*%
%TA.AperFunction,Conductor*%
%TO.N,Board_1-/+*%
G36*
X49192116Y-55019005D02*
G01*
X49238609Y-55072661D01*
X49249995Y-55125003D01*
X49249995Y-56224005D01*
X49229993Y-56292126D01*
X49176337Y-56338619D01*
X49123995Y-56350005D01*
X45909320Y-56350005D01*
X45841199Y-56330003D01*
X45802758Y-56291240D01*
X45793934Y-56277255D01*
X45789144Y-56269663D01*
X45762790Y-56246388D01*
X45724972Y-56186303D01*
X45725642Y-56115309D01*
X45764588Y-56055948D01*
X45794048Y-56037246D01*
X45803150Y-56033108D01*
X45803153Y-56033106D01*
X45811326Y-56029390D01*
X45818125Y-56023532D01*
X45818129Y-56023529D01*
X45914003Y-55940918D01*
X45914005Y-55940915D01*
X45920803Y-55935058D01*
X45999404Y-55813792D01*
X46008106Y-55784696D01*
X46038239Y-55683940D01*
X46038239Y-55683938D01*
X46040811Y-55675339D01*
X46040994Y-55645451D01*
X46041638Y-55539805D01*
X46041693Y-55530829D01*
X46003792Y-55398214D01*
X46004304Y-55327219D01*
X46048235Y-55263629D01*
X46091462Y-55230458D01*
X46096798Y-55226581D01*
X46143175Y-55194705D01*
X46148713Y-55191109D01*
X46196741Y-55161679D01*
X46202440Y-55158388D01*
X46251939Y-55131513D01*
X46257794Y-55128531D01*
X46308523Y-55104335D01*
X46314542Y-55101654D01*
X46366547Y-55080112D01*
X46372704Y-55077748D01*
X46425769Y-55058955D01*
X46432020Y-55056924D01*
X46486040Y-55040923D01*
X46492392Y-55039221D01*
X46522985Y-55031877D01*
X46547128Y-55026081D01*
X46553575Y-55024711D01*
X46608921Y-55014454D01*
X46615413Y-55013426D01*
X46635031Y-55010843D01*
X46671183Y-55006084D01*
X46677739Y-55005395D01*
X46733817Y-55000980D01*
X46740407Y-55000634D01*
X46800963Y-54999048D01*
X46804262Y-54999005D01*
X46819746Y-54999005D01*
X49123996Y-54999003D01*
X49192116Y-55019005D01*
G37*
%TD.AperFunction*%
%TD*%
%TA.AperFunction,Conductor*%
%TO.N,Board_0-/IN*%
G36*
X53191443Y-48399000D02*
G01*
X53195737Y-48399000D01*
X53199030Y-48399043D01*
X53259573Y-48400626D01*
X53266138Y-48400969D01*
X53322311Y-48405391D01*
X53328793Y-48406073D01*
X53379052Y-48412690D01*
X53384587Y-48413419D01*
X53391098Y-48414451D01*
X53446412Y-48424702D01*
X53452849Y-48426069D01*
X53507624Y-48439218D01*
X53513933Y-48440908D01*
X53567990Y-48456921D01*
X53574210Y-48458942D01*
X53627273Y-48477735D01*
X53633417Y-48480094D01*
X53685447Y-48501646D01*
X53691453Y-48504320D01*
X53742229Y-48528539D01*
X53748079Y-48531520D01*
X53797546Y-48558378D01*
X53803245Y-48561668D01*
X53823366Y-48573997D01*
X53851274Y-48591099D01*
X53856805Y-48594691D01*
X53903166Y-48626554D01*
X53908487Y-48630420D01*
X53952394Y-48664110D01*
X53994263Y-48721448D01*
X53998485Y-48792319D01*
X53996409Y-48800176D01*
X53967066Y-48898292D01*
X53959180Y-48924661D01*
X53959125Y-48933635D01*
X53959125Y-48933637D01*
X53958739Y-48996916D01*
X53958298Y-49069171D01*
X53960765Y-49077802D01*
X53960765Y-49077804D01*
X53995542Y-49199489D01*
X53995544Y-49199493D01*
X53998009Y-49208119D01*
X54075123Y-49330337D01*
X54183440Y-49425999D01*
X54191565Y-49429814D01*
X54191567Y-49429815D01*
X54207348Y-49437224D01*
X54260510Y-49484280D01*
X54279793Y-49552607D01*
X54259074Y-49620513D01*
X54236049Y-49646731D01*
X54221716Y-49659081D01*
X54221713Y-49659084D01*
X54214915Y-49664942D01*
X54197034Y-49692529D01*
X54143200Y-49738812D01*
X54091303Y-49749996D01*
X50875995Y-49749996D01*
X50807874Y-49729994D01*
X50761381Y-49676338D01*
X50749995Y-49623996D01*
X50749995Y-48524998D01*
X50769997Y-48456877D01*
X50823653Y-48410384D01*
X50875992Y-48398999D01*
X53191443Y-48399000D01*
G37*
%TD.AperFunction*%
%TD*%
%TA.AperFunction,Conductor*%
%TO.N,Board_2-/+*%
G36*
X49192116Y-61619011D02*
G01*
X49238609Y-61672666D01*
X49249995Y-61725009D01*
X49249995Y-62824014D01*
X49229993Y-62892135D01*
X49176337Y-62938628D01*
X49123995Y-62950014D01*
X45909323Y-62950014D01*
X45841202Y-62930012D01*
X45802761Y-62891249D01*
X45793934Y-62877259D01*
X45789144Y-62869667D01*
X45762792Y-62846394D01*
X45724973Y-62786308D01*
X45725643Y-62715314D01*
X45764589Y-62655953D01*
X45794046Y-62637252D01*
X45803153Y-62633111D01*
X45811328Y-62629394D01*
X45818127Y-62623536D01*
X45818131Y-62623533D01*
X45914005Y-62540922D01*
X45914007Y-62540919D01*
X45920805Y-62535062D01*
X45999406Y-62413796D01*
X46008108Y-62384700D01*
X46038241Y-62283944D01*
X46038241Y-62283942D01*
X46040813Y-62275343D01*
X46040996Y-62245455D01*
X46041640Y-62139809D01*
X46041695Y-62130833D01*
X46003795Y-61998221D01*
X46004307Y-61927226D01*
X46048238Y-61863636D01*
X46091516Y-61830428D01*
X46096827Y-61826569D01*
X46143197Y-61794700D01*
X46148727Y-61791109D01*
X46196704Y-61761707D01*
X46202385Y-61758427D01*
X46251876Y-61731554D01*
X46257719Y-61728578D01*
X46308549Y-61704333D01*
X46314566Y-61701653D01*
X46366603Y-61680098D01*
X46372740Y-61677743D01*
X46425803Y-61658954D01*
X46432075Y-61656916D01*
X46486029Y-61640935D01*
X46492398Y-61639229D01*
X46547082Y-61626100D01*
X46553532Y-61624729D01*
X46571218Y-61621451D01*
X46608902Y-61614467D01*
X46615418Y-61613435D01*
X46671213Y-61606090D01*
X46677775Y-61605400D01*
X46733877Y-61600986D01*
X46740462Y-61600641D01*
X46800957Y-61599057D01*
X46804255Y-61599014D01*
X49123995Y-61599009D01*
X49192116Y-61619011D01*
G37*
%TD.AperFunction*%
%TD*%
%TA.AperFunction,Conductor*%
%TO.N,Board_2-/IN*%
G36*
X53199043Y-61599044D02*
G01*
X53204107Y-61599178D01*
X53259519Y-61600639D01*
X53266058Y-61600982D01*
X53322209Y-61605399D01*
X53328765Y-61606088D01*
X53348978Y-61608750D01*
X53384610Y-61613441D01*
X53391126Y-61614473D01*
X53446463Y-61624730D01*
X53452910Y-61626101D01*
X53507577Y-61639224D01*
X53513952Y-61640932D01*
X53567909Y-61656915D01*
X53574184Y-61658954D01*
X53627289Y-61677760D01*
X53633446Y-61680123D01*
X53643574Y-61684318D01*
X53685452Y-61701665D01*
X53691439Y-61704331D01*
X53742214Y-61728549D01*
X53748077Y-61731537D01*
X53797536Y-61758390D01*
X53803249Y-61761688D01*
X53851235Y-61791093D01*
X53856770Y-61794687D01*
X53903196Y-61826595D01*
X53908518Y-61830462D01*
X53952392Y-61864128D01*
X53994258Y-61921465D01*
X53998479Y-61992336D01*
X53996403Y-62000192D01*
X53974838Y-62072301D01*
X53959176Y-62124669D01*
X53959121Y-62133643D01*
X53959121Y-62133645D01*
X53958735Y-62196924D01*
X53958294Y-62269179D01*
X53960761Y-62277810D01*
X53960761Y-62277812D01*
X53995538Y-62399497D01*
X53995540Y-62399501D01*
X53998005Y-62408127D01*
X54075119Y-62530345D01*
X54183436Y-62626007D01*
X54191563Y-62629822D01*
X54191562Y-62629822D01*
X54207347Y-62637233D01*
X54260510Y-62684288D01*
X54279794Y-62752616D01*
X54259076Y-62820522D01*
X54236050Y-62846741D01*
X54214918Y-62864950D01*
X54210033Y-62872487D01*
X54197029Y-62892548D01*
X54143193Y-62938831D01*
X54091298Y-62950014D01*
X50875995Y-62950014D01*
X50807874Y-62930012D01*
X50761381Y-62876356D01*
X50749995Y-62824014D01*
X50749995Y-61725005D01*
X50769997Y-61656884D01*
X50823653Y-61610391D01*
X50875995Y-61599005D01*
X53195721Y-61599000D01*
X53199043Y-61599044D01*
G37*
%TD.AperFunction*%
%TD*%
%TA.AperFunction,Conductor*%
%TO.N,Board_3-/IN*%
G36*
X53199013Y-68199044D02*
G01*
X53259524Y-68200648D01*
X53266044Y-68200990D01*
X53322209Y-68205408D01*
X53328765Y-68206097D01*
X53348978Y-68208759D01*
X53384610Y-68213450D01*
X53391124Y-68214482D01*
X53446459Y-68224738D01*
X53452898Y-68226107D01*
X53507645Y-68239251D01*
X53513988Y-68240951D01*
X53562641Y-68255363D01*
X53567965Y-68256940D01*
X53574221Y-68258973D01*
X53627273Y-68277760D01*
X53633373Y-68280102D01*
X53685445Y-68301672D01*
X53691450Y-68304345D01*
X53734771Y-68325009D01*
X53742237Y-68328570D01*
X53748114Y-68331565D01*
X53797579Y-68358423D01*
X53803295Y-68361723D01*
X53851285Y-68391134D01*
X53856812Y-68394723D01*
X53903152Y-68426571D01*
X53908488Y-68430448D01*
X53952385Y-68464130D01*
X53994253Y-68521467D01*
X53998477Y-68592338D01*
X53996400Y-68600197D01*
X53974835Y-68672306D01*
X53959173Y-68724674D01*
X53959118Y-68733648D01*
X53959118Y-68733650D01*
X53958732Y-68796929D01*
X53958291Y-68869184D01*
X53960758Y-68877815D01*
X53960758Y-68877817D01*
X53995535Y-68999502D01*
X53995537Y-68999506D01*
X53998002Y-69008132D01*
X54075116Y-69130350D01*
X54183433Y-69226012D01*
X54191558Y-69229827D01*
X54191560Y-69229828D01*
X54207347Y-69237240D01*
X54260510Y-69284296D01*
X54279792Y-69352624D01*
X54259072Y-69420530D01*
X54236047Y-69446748D01*
X54214918Y-69464954D01*
X54210035Y-69472488D01*
X54197028Y-69492555D01*
X54143193Y-69538839D01*
X54091296Y-69550023D01*
X50875995Y-69550023D01*
X50807874Y-69530021D01*
X50761381Y-69476365D01*
X50749995Y-69424023D01*
X50749995Y-68325009D01*
X50769997Y-68256888D01*
X50823653Y-68210395D01*
X50875995Y-68199009D01*
X53175469Y-68199000D01*
X53195675Y-68199000D01*
X53199013Y-68199044D01*
G37*
%TD.AperFunction*%
%TD*%
%TA.AperFunction,Conductor*%
%TO.N,Board_1-/OUT*%
G36*
X49192116Y-56820007D02*
G01*
X49238609Y-56873663D01*
X49249995Y-56926005D01*
X49249995Y-58075002D01*
X49229993Y-58143123D01*
X49176337Y-58189616D01*
X49123998Y-58201001D01*
X46808536Y-58201000D01*
X46804250Y-58201000D01*
X46800961Y-58200957D01*
X46793629Y-58200765D01*
X46740462Y-58199376D01*
X46733873Y-58199031D01*
X46677775Y-58194618D01*
X46671212Y-58193928D01*
X46615429Y-58186585D01*
X46608910Y-58185553D01*
X46553522Y-58175287D01*
X46547073Y-58173916D01*
X46492395Y-58160790D01*
X46486041Y-58159088D01*
X46432055Y-58143096D01*
X46425826Y-58141073D01*
X46372720Y-58122268D01*
X46366607Y-58119921D01*
X46314544Y-58098355D01*
X46308523Y-58095674D01*
X46257750Y-58071456D01*
X46251888Y-58068469D01*
X46202401Y-58041599D01*
X46196694Y-58038304D01*
X46148704Y-58008893D01*
X46143176Y-58005303D01*
X46096853Y-57973466D01*
X46091518Y-57969590D01*
X46047595Y-57935888D01*
X46005727Y-57878551D01*
X46001503Y-57807680D01*
X46003580Y-57799821D01*
X46008104Y-57784696D01*
X46040809Y-57675339D01*
X46040992Y-57645451D01*
X46041636Y-57539805D01*
X46041691Y-57530829D01*
X46008631Y-57415152D01*
X46004447Y-57400511D01*
X46004445Y-57400507D01*
X46001980Y-57391881D01*
X45924866Y-57269663D01*
X45816549Y-57174001D01*
X45808426Y-57170187D01*
X45808424Y-57170186D01*
X45792643Y-57162777D01*
X45739481Y-57115720D01*
X45720199Y-57047392D01*
X45740919Y-56979486D01*
X45763944Y-56953269D01*
X45778279Y-56940917D01*
X45785079Y-56935058D01*
X45835368Y-56857472D01*
X45889203Y-56811189D01*
X45941099Y-56800005D01*
X49123995Y-56800005D01*
X49192116Y-56820007D01*
G37*
%TD.AperFunction*%
%TD*%
%TA.AperFunction,Conductor*%
%TO.N,Board_3-/-*%
G36*
X54158808Y-70070025D02*
G01*
X54197247Y-70108785D01*
X54210853Y-70130349D01*
X54217581Y-70136291D01*
X54237207Y-70153624D01*
X54275025Y-70213709D01*
X54274355Y-70284703D01*
X54235409Y-70344064D01*
X54205949Y-70362766D01*
X54196845Y-70366905D01*
X54196842Y-70366907D01*
X54188669Y-70370623D01*
X54181870Y-70376481D01*
X54181866Y-70376484D01*
X54085992Y-70459095D01*
X54085990Y-70459098D01*
X54079192Y-70464955D01*
X54000591Y-70586221D01*
X53998019Y-70594821D01*
X53974846Y-70672306D01*
X53959184Y-70724674D01*
X53959129Y-70733648D01*
X53959129Y-70733650D01*
X53958743Y-70796929D01*
X53958302Y-70869184D01*
X53996206Y-71001809D01*
X53995694Y-71072802D01*
X53951759Y-71136395D01*
X53908478Y-71169605D01*
X53903144Y-71173480D01*
X53856802Y-71205330D01*
X53851289Y-71208910D01*
X53819458Y-71228418D01*
X53803292Y-71238324D01*
X53797580Y-71241622D01*
X53748124Y-71268475D01*
X53742269Y-71271459D01*
X53691432Y-71295708D01*
X53685428Y-71298380D01*
X53648851Y-71313531D01*
X53633411Y-71319927D01*
X53627251Y-71322292D01*
X53574220Y-71341071D01*
X53567949Y-71343109D01*
X53513996Y-71359091D01*
X53507643Y-71360794D01*
X53452894Y-71373939D01*
X53446463Y-71375306D01*
X53391123Y-71385563D01*
X53384610Y-71386595D01*
X53371059Y-71388379D01*
X53328753Y-71393949D01*
X53322216Y-71394636D01*
X53303980Y-71396071D01*
X53266112Y-71399050D01*
X53259528Y-71399395D01*
X53205267Y-71400816D01*
X53199034Y-71400979D01*
X53195739Y-71401022D01*
X52936122Y-71401021D01*
X50875995Y-71401014D01*
X50807874Y-71381012D01*
X50761381Y-71327356D01*
X50749995Y-71275014D01*
X50749995Y-70176023D01*
X50769997Y-70107902D01*
X50823653Y-70061409D01*
X50875995Y-70050023D01*
X54090687Y-70050023D01*
X54158808Y-70070025D01*
G37*
%TD.AperFunction*%
%TD*%
%TA.AperFunction,Conductor*%
%TO.N,Board_1-/IN*%
G36*
X53198999Y-54999043D02*
G01*
X53259576Y-55000634D01*
X53266155Y-55000980D01*
X53286785Y-55002604D01*
X53322273Y-55005398D01*
X53328793Y-55006082D01*
X53379052Y-55012699D01*
X53384587Y-55013428D01*
X53391098Y-55014460D01*
X53446412Y-55024711D01*
X53452849Y-55026078D01*
X53507624Y-55039227D01*
X53513933Y-55040917D01*
X53567990Y-55056930D01*
X53574210Y-55058951D01*
X53627273Y-55077744D01*
X53633417Y-55080103D01*
X53685447Y-55101655D01*
X53691453Y-55104329D01*
X53742229Y-55128548D01*
X53748079Y-55131529D01*
X53797546Y-55158387D01*
X53803245Y-55161677D01*
X53851025Y-55190955D01*
X53851274Y-55191108D01*
X53856805Y-55194700D01*
X53903166Y-55226563D01*
X53908488Y-55230430D01*
X53952392Y-55264118D01*
X53994260Y-55321455D01*
X53998482Y-55392326D01*
X53996406Y-55400183D01*
X53966395Y-55500533D01*
X53959178Y-55524665D01*
X53959123Y-55533639D01*
X53959123Y-55533641D01*
X53958737Y-55596920D01*
X53958296Y-55669175D01*
X53960763Y-55677806D01*
X53960763Y-55677808D01*
X53995540Y-55799493D01*
X53995542Y-55799497D01*
X53998007Y-55808123D01*
X54075121Y-55930341D01*
X54183438Y-56026003D01*
X54191561Y-56029817D01*
X54191566Y-56029820D01*
X54207351Y-56037231D01*
X54260513Y-56084288D01*
X54279794Y-56152616D01*
X54259073Y-56220522D01*
X54236050Y-56246737D01*
X54214918Y-56264946D01*
X54197034Y-56292538D01*
X54143199Y-56338821D01*
X54091302Y-56350005D01*
X50875995Y-56350005D01*
X50807874Y-56330003D01*
X50761381Y-56276347D01*
X50749995Y-56224005D01*
X50749995Y-55125002D01*
X50769997Y-55056881D01*
X50823653Y-55010388D01*
X50875995Y-54999002D01*
X53180083Y-54999000D01*
X53195691Y-54999000D01*
X53198999Y-54999043D01*
G37*
%TD.AperFunction*%
%TD*%
%TA.AperFunction,Conductor*%
%TO.N,Board_3-/OUT*%
G36*
X49192116Y-70020025D02*
G01*
X49238609Y-70073681D01*
X49249995Y-70126023D01*
X49249995Y-71275008D01*
X49229993Y-71343129D01*
X49176337Y-71389622D01*
X49123995Y-71401008D01*
X47060337Y-71401001D01*
X46804218Y-71401000D01*
X46800960Y-71400958D01*
X46792269Y-71400733D01*
X46740454Y-71399393D01*
X46733847Y-71399047D01*
X46677777Y-71394636D01*
X46671229Y-71393948D01*
X46615362Y-71386593D01*
X46608864Y-71385564D01*
X46553562Y-71375313D01*
X46547133Y-71373947D01*
X46492360Y-71360799D01*
X46486025Y-71359101D01*
X46432083Y-71343123D01*
X46425814Y-71341086D01*
X46372707Y-71322280D01*
X46366562Y-71319921D01*
X46314540Y-71298372D01*
X46308567Y-71295713D01*
X46257745Y-71271472D01*
X46251910Y-71268498D01*
X46202443Y-71241640D01*
X46196730Y-71238342D01*
X46148705Y-71208913D01*
X46143212Y-71205347D01*
X46096795Y-71173444D01*
X46091487Y-71169586D01*
X46047588Y-71135902D01*
X46005720Y-71078565D01*
X46001498Y-71007694D01*
X46003574Y-70999836D01*
X46008100Y-70984705D01*
X46040805Y-70875348D01*
X46040988Y-70845460D01*
X46041632Y-70739814D01*
X46041687Y-70730838D01*
X46008627Y-70615161D01*
X46004443Y-70600520D01*
X46004441Y-70600516D01*
X46001976Y-70591890D01*
X45924862Y-70469672D01*
X45816545Y-70374010D01*
X45808422Y-70370196D01*
X45808420Y-70370195D01*
X45792641Y-70362787D01*
X45739479Y-70315730D01*
X45720197Y-70247402D01*
X45740917Y-70179496D01*
X45763942Y-70153279D01*
X45778279Y-70140926D01*
X45778281Y-70140923D01*
X45785079Y-70135066D01*
X45835362Y-70057489D01*
X45889197Y-70011207D01*
X45941093Y-70000023D01*
X49123995Y-70000023D01*
X49192116Y-70020025D01*
G37*
%TD.AperFunction*%
%TD*%
%TA.AperFunction,Conductor*%
%TO.N,Board_2-/-*%
G36*
X54158805Y-63470016D02*
G01*
X54197246Y-63508779D01*
X54210853Y-63530345D01*
X54217578Y-63536284D01*
X54217582Y-63536289D01*
X54237206Y-63553620D01*
X54275023Y-63613706D01*
X54274352Y-63684700D01*
X54235405Y-63744060D01*
X54205947Y-63762761D01*
X54196843Y-63766900D01*
X54196840Y-63766902D01*
X54188667Y-63770618D01*
X54181868Y-63776476D01*
X54181864Y-63776479D01*
X54085990Y-63859090D01*
X54085988Y-63859093D01*
X54079190Y-63864950D01*
X54000589Y-63986216D01*
X53998017Y-63994816D01*
X53974844Y-64072301D01*
X53959182Y-64124669D01*
X53959127Y-64133643D01*
X53959127Y-64133645D01*
X53958741Y-64196924D01*
X53958300Y-64269179D01*
X53960767Y-64277810D01*
X53960767Y-64277812D01*
X53996202Y-64401799D01*
X53995689Y-64472794D01*
X53951758Y-64536384D01*
X53908513Y-64569568D01*
X53903177Y-64573445D01*
X53856770Y-64605341D01*
X53851256Y-64608923D01*
X53817848Y-64629394D01*
X53803256Y-64638335D01*
X53797548Y-64641630D01*
X53771993Y-64655505D01*
X53748075Y-64668491D01*
X53742208Y-64671480D01*
X53691462Y-64695684D01*
X53685439Y-64698366D01*
X53633396Y-64719924D01*
X53627234Y-64722289D01*
X53574219Y-64741062D01*
X53567950Y-64743099D01*
X53514007Y-64759079D01*
X53507634Y-64760787D01*
X53452909Y-64773926D01*
X53446456Y-64775298D01*
X53391084Y-64785561D01*
X53384567Y-64786593D01*
X53328806Y-64793934D01*
X53322249Y-64794623D01*
X53266170Y-64799038D01*
X53259580Y-64799384D01*
X53199028Y-64800970D01*
X53195729Y-64801013D01*
X53170013Y-64801013D01*
X50875995Y-64801008D01*
X50807874Y-64781006D01*
X50761381Y-64727350D01*
X50749995Y-64675008D01*
X50749995Y-63576014D01*
X50769997Y-63507893D01*
X50823653Y-63461400D01*
X50875995Y-63450014D01*
X54090684Y-63450014D01*
X54158805Y-63470016D01*
G37*
%TD.AperFunction*%
%TD*%
%TA.AperFunction,Conductor*%
%TO.N,Board_3-/+*%
G36*
X49192115Y-68219016D02*
G01*
X49238608Y-68272671D01*
X49249995Y-68325014D01*
X49249995Y-69424023D01*
X49229993Y-69492144D01*
X49176337Y-69538637D01*
X49123995Y-69550023D01*
X45909326Y-69550023D01*
X45841205Y-69530021D01*
X45802765Y-69491259D01*
X45789144Y-69469671D01*
X45782415Y-69463728D01*
X45762792Y-69446397D01*
X45724975Y-69386311D01*
X45725646Y-69315317D01*
X45764592Y-69255957D01*
X45794051Y-69237256D01*
X45803155Y-69233117D01*
X45803158Y-69233115D01*
X45811331Y-69229399D01*
X45818130Y-69223541D01*
X45818134Y-69223538D01*
X45914008Y-69140927D01*
X45914010Y-69140924D01*
X45920808Y-69135067D01*
X45999409Y-69013801D01*
X46008111Y-68984705D01*
X46038244Y-68883949D01*
X46038244Y-68883947D01*
X46040816Y-68875348D01*
X46040999Y-68845460D01*
X46041643Y-68739814D01*
X46041698Y-68730838D01*
X46003798Y-68598226D01*
X46004310Y-68527231D01*
X46048240Y-68463642D01*
X46091489Y-68430456D01*
X46096794Y-68426602D01*
X46143229Y-68394689D01*
X46148763Y-68391096D01*
X46196732Y-68361702D01*
X46202434Y-68358409D01*
X46251928Y-68331537D01*
X46257780Y-68328556D01*
X46308532Y-68304349D01*
X46314558Y-68301666D01*
X46366594Y-68280112D01*
X46372750Y-68277749D01*
X46425755Y-68258978D01*
X46432031Y-68256939D01*
X46485975Y-68240960D01*
X46492346Y-68239253D01*
X46547127Y-68226101D01*
X46553582Y-68224729D01*
X46608916Y-68214474D01*
X46615424Y-68213443D01*
X46643325Y-68209770D01*
X46671219Y-68206098D01*
X46677777Y-68205408D01*
X46733854Y-68200995D01*
X46740403Y-68200652D01*
X46797684Y-68199152D01*
X46800967Y-68199066D01*
X46804264Y-68199023D01*
X46824228Y-68199023D01*
X49123997Y-68199015D01*
X49192115Y-68219016D01*
G37*
%TD.AperFunction*%
%TD*%
M02*
