%TF.GenerationSoftware,KiCad,Pcbnew,(6.0.0)*%
%TF.CreationDate,2022-12-15T23:51:33-05:00*%
%TF.ProjectId,Adafruit LED Sequin-WithRails,41646166-7275-4697-9420-4c4544205365,rev?*%
%TF.SameCoordinates,Original*%
%TF.FileFunction,Soldermask,Top*%
%TF.FilePolarity,Negative*%
%FSLAX46Y46*%
G04 Gerber Fmt 4.6, Leading zero omitted, Abs format (unit mm)*
G04 Created by KiCad (PCBNEW (6.0.0)) date 2022-12-15 23:51:33*
%MOMM*%
%LPD*%
G01*
G04 APERTURE LIST*
%ADD10C,0.500000*%
%ADD11R,1.600000X0.850000*%
G04 APERTURE END LIST*
D10*
%TO.C,REF\u002A\u002A*%
X45536719Y-57600002D03*
%TD*%
%TO.C,REF\u002A\u002A*%
X54463274Y-70800011D03*
%TD*%
D11*
%TO.C,D1*%
X48249995Y-62325014D03*
X48249995Y-64075014D03*
X51749995Y-64075014D03*
X51749995Y-62325014D03*
%TD*%
%TO.C,D1*%
X48249995Y-55725005D03*
X48249995Y-57475005D03*
X51749995Y-57475005D03*
X51749995Y-55725005D03*
%TD*%
D10*
%TO.C,REF\u002A\u002A*%
X54599000Y-69800010D03*
%TD*%
%TO.C,REF\u002A\u002A*%
X54463270Y-57600002D03*
%TD*%
%TO.C,REF\u002A\u002A*%
X54463263Y-68800011D03*
%TD*%
%TO.C,REF\u002A\u002A*%
X45536717Y-64200006D03*
%TD*%
%TO.C,REF\u002A\u002A*%
X45536721Y-55600002D03*
%TD*%
D11*
%TO.C,D1*%
X48249995Y-68925023D03*
X48249995Y-70675023D03*
X51749995Y-70675023D03*
X51749995Y-68925023D03*
%TD*%
D10*
%TO.C,REF\u002A\u002A*%
X45536721Y-50999998D03*
%TD*%
%TO.C,REF\u002A\u002A*%
X54599000Y-63200006D03*
%TD*%
%TO.C,REF\u002A\u002A*%
X54463268Y-50999998D03*
%TD*%
%TO.C,REF\u002A\u002A*%
X45536723Y-62200006D03*
%TD*%
%TO.C,REF\u002A\u002A*%
X45400997Y-63200006D03*
%TD*%
%TO.C,REF\u002A\u002A*%
X54598997Y-49999998D03*
%TD*%
%TO.C,REF\u002A\u002A*%
X54463270Y-48999998D03*
%TD*%
D11*
%TO.C,D1*%
X48249995Y-49124996D03*
X48249995Y-50874996D03*
X51749995Y-50874996D03*
X51749995Y-49124996D03*
%TD*%
D10*
%TO.C,REF\u002A\u002A*%
X45536726Y-68800011D03*
%TD*%
%TO.C,REF\u002A\u002A*%
X45400997Y-56600002D03*
%TD*%
%TO.C,REF\u002A\u002A*%
X54463266Y-62200006D03*
%TD*%
%TO.C,REF\u002A\u002A*%
X54463272Y-64200006D03*
%TD*%
%TO.C,REF\u002A\u002A*%
X54599000Y-56600002D03*
%TD*%
%TO.C,REF\u002A\u002A*%
X45536715Y-70800011D03*
%TD*%
%TO.C,REF\u002A\u002A*%
X45400997Y-69800010D03*
%TD*%
%TO.C,REF\u002A\u002A*%
X45536719Y-48999998D03*
%TD*%
%TO.C,REF\u002A\u002A*%
X45400997Y-49999998D03*
%TD*%
%TO.C,REF\u002A\u002A*%
X54463268Y-55600002D03*
%TD*%
G36*
X47042116Y-48218998D02*
G01*
X47088609Y-48272654D01*
X47099995Y-48324996D01*
X47099995Y-51675000D01*
X47079993Y-51743121D01*
X47026337Y-51789614D01*
X46973995Y-51801000D01*
X46801668Y-51801000D01*
X46798361Y-51800957D01*
X46729986Y-51799162D01*
X46723410Y-51798817D01*
X46656858Y-51793581D01*
X46650296Y-51792891D01*
X46584131Y-51784181D01*
X46577615Y-51783149D01*
X46511929Y-51770975D01*
X46505473Y-51769603D01*
X46440580Y-51754022D01*
X46434211Y-51752315D01*
X46370207Y-51733356D01*
X46363931Y-51731317D01*
X46301046Y-51709047D01*
X46294890Y-51706684D01*
X46233180Y-51681123D01*
X46227154Y-51678440D01*
X46166962Y-51649730D01*
X46161086Y-51646736D01*
X46102414Y-51614881D01*
X46096700Y-51611582D01*
X46039788Y-51576707D01*
X46034256Y-51573114D01*
X45979199Y-51535275D01*
X45973861Y-51531397D01*
X45920927Y-51490779D01*
X45915798Y-51486626D01*
X45865058Y-51443288D01*
X45860161Y-51438879D01*
X45811761Y-51392952D01*
X45807093Y-51388284D01*
X45761098Y-51339815D01*
X45756683Y-51334911D01*
X45713343Y-51284164D01*
X45709192Y-51279038D01*
X45668555Y-51226077D01*
X45664680Y-51220743D01*
X45626901Y-51165775D01*
X45623307Y-51160241D01*
X45588411Y-51103295D01*
X45585114Y-51097585D01*
X45553280Y-51038956D01*
X45550286Y-51033080D01*
X45542306Y-51016350D01*
X45531322Y-51004094D01*
X45516927Y-50999998D01*
X45225995Y-50999998D01*
X45157874Y-50979996D01*
X45111381Y-50926340D01*
X45099995Y-50873998D01*
X45099995Y-49125998D01*
X45119997Y-49057877D01*
X45173653Y-49011384D01*
X45225995Y-48999998D01*
X45516388Y-48999998D01*
X45532174Y-48995363D01*
X45542071Y-48984131D01*
X45550283Y-48966917D01*
X45553276Y-48961044D01*
X45585110Y-48902413D01*
X45588407Y-48896702D01*
X45623283Y-48839787D01*
X45626875Y-48834255D01*
X45664677Y-48779250D01*
X45668556Y-48773912D01*
X45709193Y-48720952D01*
X45713342Y-48715827D01*
X45756690Y-48665070D01*
X45761105Y-48660167D01*
X45807041Y-48611759D01*
X45811706Y-48607094D01*
X45860132Y-48561138D01*
X45865033Y-48556725D01*
X45915796Y-48513367D01*
X45920924Y-48509214D01*
X45973869Y-48468587D01*
X45979204Y-48464711D01*
X46034206Y-48426907D01*
X46039742Y-48423312D01*
X46096695Y-48388412D01*
X46102408Y-48385113D01*
X46161090Y-48353252D01*
X46166970Y-48350257D01*
X46227193Y-48321534D01*
X46233217Y-48318852D01*
X46294909Y-48293299D01*
X46301069Y-48290934D01*
X46363968Y-48268662D01*
X46370241Y-48266624D01*
X46434252Y-48247664D01*
X46440623Y-48245957D01*
X46505475Y-48230388D01*
X46511923Y-48229017D01*
X46577561Y-48216850D01*
X46584077Y-48215818D01*
X46650261Y-48207103D01*
X46656822Y-48206414D01*
X46723348Y-48201177D01*
X46729937Y-48200831D01*
X46798353Y-48199039D01*
X46801652Y-48198996D01*
X46973995Y-48198996D01*
X47042116Y-48218998D01*
G37*
G36*
X47042115Y-61419015D02*
G01*
X47088608Y-61472670D01*
X47099995Y-61525013D01*
X47099995Y-64875001D01*
X47079993Y-64943122D01*
X47026337Y-64989615D01*
X46973994Y-65001001D01*
X46801620Y-65001000D01*
X46798345Y-65000957D01*
X46730017Y-64999180D01*
X46723410Y-64998835D01*
X46656858Y-64993599D01*
X46650296Y-64992909D01*
X46584131Y-64984199D01*
X46577615Y-64983167D01*
X46511933Y-64970994D01*
X46505480Y-64969623D01*
X46440622Y-64954052D01*
X46434252Y-64952345D01*
X46370241Y-64933385D01*
X46363968Y-64931347D01*
X46301067Y-64909074D01*
X46294905Y-64906709D01*
X46233179Y-64881141D01*
X46227151Y-64878457D01*
X46166910Y-64849722D01*
X46161034Y-64846727D01*
X46102366Y-64814872D01*
X46096652Y-64811573D01*
X46039750Y-64776702D01*
X46034220Y-64773111D01*
X45979255Y-64735335D01*
X45973917Y-64731457D01*
X45920909Y-64690782D01*
X45915781Y-64686629D01*
X45865033Y-64643284D01*
X45860132Y-64638871D01*
X45811714Y-64592923D01*
X45807050Y-64588259D01*
X45761135Y-64539874D01*
X45756724Y-64534975D01*
X45713379Y-64484227D01*
X45709225Y-64479097D01*
X45668551Y-64426089D01*
X45664673Y-64420751D01*
X45626876Y-64365754D01*
X45623283Y-64360222D01*
X45588407Y-64303307D01*
X45585111Y-64297597D01*
X45553281Y-64238975D01*
X45550286Y-64233098D01*
X45542301Y-64216358D01*
X45531319Y-64204103D01*
X45516922Y-64200006D01*
X45225995Y-64200006D01*
X45157874Y-64180004D01*
X45111381Y-64126348D01*
X45099995Y-64074006D01*
X45099995Y-62326006D01*
X45119997Y-62257885D01*
X45173653Y-62211392D01*
X45225995Y-62200006D01*
X45516393Y-62200006D01*
X45532178Y-62195371D01*
X45542077Y-62184138D01*
X45550279Y-62166943D01*
X45553272Y-62161069D01*
X45585110Y-62102431D01*
X45588407Y-62096720D01*
X45623283Y-62039805D01*
X45626876Y-62034273D01*
X45664673Y-61979276D01*
X45668551Y-61973938D01*
X45709225Y-61920930D01*
X45713379Y-61915800D01*
X45756724Y-61865052D01*
X45761137Y-61860151D01*
X45807085Y-61811733D01*
X45811749Y-61807069D01*
X45860134Y-61761154D01*
X45865033Y-61756743D01*
X45915781Y-61713398D01*
X45920909Y-61709245D01*
X45973917Y-61668570D01*
X45979255Y-61664692D01*
X46034220Y-61626916D01*
X46039750Y-61623325D01*
X46096652Y-61588454D01*
X46102366Y-61585155D01*
X46161034Y-61553300D01*
X46166910Y-61550305D01*
X46227151Y-61521570D01*
X46233179Y-61518886D01*
X46294905Y-61493318D01*
X46301067Y-61490953D01*
X46363968Y-61468680D01*
X46370241Y-61466642D01*
X46434252Y-61447682D01*
X46440622Y-61445975D01*
X46505480Y-61430404D01*
X46511933Y-61429033D01*
X46577615Y-61416860D01*
X46584131Y-61415828D01*
X46650296Y-61407118D01*
X46656858Y-61406428D01*
X46723410Y-61401192D01*
X46729995Y-61400847D01*
X46798352Y-61399057D01*
X46801649Y-61399014D01*
X46973994Y-61399013D01*
X47042115Y-61419015D01*
G37*
G36*
X47042116Y-54819007D02*
G01*
X47088609Y-54872663D01*
X47099995Y-54925005D01*
X47099995Y-58275000D01*
X47079993Y-58343121D01*
X47026337Y-58389614D01*
X46973995Y-58401000D01*
X46801645Y-58401000D01*
X46798354Y-58400957D01*
X46730002Y-58399171D01*
X46723410Y-58398826D01*
X46656858Y-58393590D01*
X46650296Y-58392900D01*
X46584131Y-58384190D01*
X46577615Y-58383158D01*
X46511933Y-58370985D01*
X46505480Y-58369614D01*
X46440622Y-58354043D01*
X46434252Y-58352336D01*
X46370241Y-58333376D01*
X46363968Y-58331338D01*
X46301067Y-58309065D01*
X46294905Y-58306700D01*
X46233179Y-58281132D01*
X46227151Y-58278448D01*
X46166910Y-58249713D01*
X46161034Y-58246718D01*
X46102366Y-58214863D01*
X46096652Y-58211564D01*
X46039750Y-58176693D01*
X46034220Y-58173102D01*
X45979255Y-58135326D01*
X45973917Y-58131448D01*
X45920909Y-58090773D01*
X45915781Y-58086620D01*
X45865033Y-58043275D01*
X45860132Y-58038862D01*
X45811714Y-57992914D01*
X45807050Y-57988250D01*
X45761135Y-57939865D01*
X45756724Y-57934966D01*
X45713379Y-57884218D01*
X45709225Y-57879088D01*
X45668551Y-57826080D01*
X45664673Y-57820742D01*
X45626876Y-57765745D01*
X45623283Y-57760213D01*
X45588407Y-57703298D01*
X45585110Y-57697587D01*
X45553276Y-57638956D01*
X45550283Y-57633083D01*
X45542303Y-57616354D01*
X45531320Y-57604099D01*
X45516924Y-57600002D01*
X45225995Y-57600002D01*
X45157874Y-57580000D01*
X45111381Y-57526344D01*
X45099995Y-57474002D01*
X45099995Y-55726002D01*
X45119997Y-55657881D01*
X45173653Y-55611388D01*
X45225995Y-55600002D01*
X45516390Y-55600002D01*
X45532177Y-55595367D01*
X45542074Y-55584135D01*
X45550286Y-55566920D01*
X45553280Y-55561045D01*
X45585111Y-55502421D01*
X45588407Y-55496711D01*
X45623283Y-55439796D01*
X45626876Y-55434264D01*
X45664673Y-55379267D01*
X45668551Y-55373929D01*
X45709225Y-55320921D01*
X45713379Y-55315791D01*
X45756724Y-55265043D01*
X45761137Y-55260142D01*
X45807085Y-55211724D01*
X45811749Y-55207060D01*
X45860134Y-55161145D01*
X45865033Y-55156734D01*
X45915796Y-55113376D01*
X45920924Y-55109223D01*
X45973869Y-55068596D01*
X45979204Y-55064720D01*
X46034206Y-55026916D01*
X46039742Y-55023321D01*
X46096695Y-54988421D01*
X46102408Y-54985122D01*
X46161085Y-54953264D01*
X46166962Y-54950270D01*
X46227158Y-54921558D01*
X46233182Y-54918876D01*
X46294843Y-54893334D01*
X46301000Y-54890970D01*
X46363936Y-54868681D01*
X46370213Y-54866642D01*
X46434252Y-54847673D01*
X46440626Y-54845965D01*
X46505514Y-54830388D01*
X46511967Y-54829016D01*
X46577622Y-54816849D01*
X46584135Y-54815818D01*
X46650258Y-54807113D01*
X46656815Y-54806424D01*
X46723347Y-54801186D01*
X46729937Y-54800840D01*
X46798352Y-54799048D01*
X46801651Y-54799005D01*
X46973995Y-54799005D01*
X47042116Y-54819007D01*
G37*
G36*
X53201637Y-54799043D02*
G01*
X53270061Y-54800840D01*
X53276642Y-54801186D01*
X53343174Y-54806424D01*
X53349731Y-54807113D01*
X53415854Y-54815818D01*
X53422367Y-54816849D01*
X53488022Y-54829016D01*
X53494475Y-54830388D01*
X53559363Y-54845965D01*
X53565737Y-54847673D01*
X53629776Y-54866642D01*
X53636053Y-54868681D01*
X53698989Y-54890970D01*
X53705146Y-54893334D01*
X53766807Y-54918876D01*
X53772831Y-54921558D01*
X53833027Y-54950270D01*
X53838904Y-54953264D01*
X53897581Y-54985122D01*
X53903294Y-54988421D01*
X53960240Y-55023317D01*
X53965774Y-55026911D01*
X54020742Y-55064690D01*
X54026076Y-55068565D01*
X54079037Y-55109202D01*
X54084163Y-55113352D01*
X54134920Y-55156700D01*
X54139823Y-55161115D01*
X54188229Y-55207049D01*
X54192896Y-55211716D01*
X54238891Y-55260185D01*
X54243306Y-55265089D01*
X54286646Y-55315836D01*
X54290797Y-55320962D01*
X54331434Y-55373923D01*
X54335309Y-55379257D01*
X54373088Y-55434225D01*
X54376682Y-55439759D01*
X54411578Y-55496705D01*
X54414875Y-55502415D01*
X54446709Y-55561044D01*
X54449703Y-55566920D01*
X54457683Y-55583650D01*
X54468667Y-55595906D01*
X54483062Y-55600002D01*
X54773995Y-55600002D01*
X54842116Y-55620004D01*
X54888609Y-55673660D01*
X54899995Y-55726002D01*
X54899995Y-57474002D01*
X54879993Y-57542123D01*
X54826337Y-57588616D01*
X54773995Y-57600002D01*
X54483601Y-57600002D01*
X54467815Y-57604637D01*
X54457918Y-57615869D01*
X54449706Y-57633083D01*
X54446713Y-57638956D01*
X54414876Y-57697592D01*
X54411578Y-57703304D01*
X54376682Y-57760250D01*
X54373088Y-57765784D01*
X54335309Y-57820752D01*
X54331434Y-57826086D01*
X54290797Y-57879047D01*
X54286647Y-57884173D01*
X54243299Y-57934930D01*
X54238884Y-57939833D01*
X54192950Y-57988239D01*
X54188283Y-57992906D01*
X54139820Y-58038895D01*
X54134920Y-58043307D01*
X54084190Y-58086636D01*
X54079062Y-58090788D01*
X54026128Y-58131406D01*
X54020790Y-58135284D01*
X53965733Y-58173123D01*
X53960201Y-58176716D01*
X53903289Y-58211591D01*
X53897575Y-58214890D01*
X53838903Y-58246745D01*
X53833027Y-58249739D01*
X53772835Y-58278449D01*
X53766809Y-58281132D01*
X53705099Y-58306693D01*
X53698943Y-58309056D01*
X53636058Y-58331326D01*
X53629782Y-58333365D01*
X53565778Y-58352324D01*
X53559409Y-58354031D01*
X53494516Y-58369612D01*
X53488061Y-58370984D01*
X53422377Y-58383158D01*
X53415861Y-58384190D01*
X53349731Y-58392896D01*
X53343174Y-58393585D01*
X53276642Y-58398823D01*
X53270052Y-58399169D01*
X53201636Y-58400961D01*
X53198337Y-58401004D01*
X53025995Y-58401004D01*
X52957874Y-58381002D01*
X52911381Y-58327346D01*
X52899995Y-58275004D01*
X52899995Y-54925000D01*
X52919997Y-54856879D01*
X52973653Y-54810386D01*
X53025995Y-54799000D01*
X53198329Y-54799000D01*
X53201637Y-54799043D01*
G37*
G36*
X47042115Y-68019024D02*
G01*
X47088608Y-68072679D01*
X47099995Y-68125022D01*
X47099995Y-71475001D01*
X47079993Y-71543122D01*
X47026337Y-71589615D01*
X46973994Y-71601001D01*
X46801636Y-71601000D01*
X46798378Y-71600958D01*
X46730015Y-71599189D01*
X46723392Y-71598843D01*
X46656865Y-71593609D01*
X46650299Y-71592919D01*
X46584072Y-71584199D01*
X46577559Y-71583167D01*
X46511974Y-71571012D01*
X46505524Y-71569641D01*
X46440633Y-71554064D01*
X46434258Y-71552356D01*
X46370253Y-71533397D01*
X46363979Y-71531359D01*
X46301003Y-71509058D01*
X46294843Y-71506693D01*
X46233182Y-71481151D01*
X46227158Y-71478469D01*
X46166962Y-71449757D01*
X46161085Y-71446763D01*
X46102408Y-71414905D01*
X46096695Y-71411606D01*
X46039742Y-71376706D01*
X46034206Y-71373111D01*
X45979219Y-71335317D01*
X45973886Y-71331442D01*
X45920945Y-71290820D01*
X45915819Y-71286670D01*
X45865068Y-71243326D01*
X45860166Y-71238912D01*
X45811760Y-71192978D01*
X45807093Y-71188311D01*
X45761098Y-71139842D01*
X45756683Y-71134938D01*
X45713343Y-71084191D01*
X45709192Y-71079065D01*
X45668555Y-71026104D01*
X45664680Y-71020770D01*
X45626901Y-70965802D01*
X45623307Y-70960268D01*
X45588411Y-70903322D01*
X45585113Y-70897611D01*
X45553272Y-70838968D01*
X45550279Y-70833093D01*
X45542298Y-70816362D01*
X45531317Y-70804108D01*
X45516920Y-70800011D01*
X45225995Y-70800011D01*
X45157874Y-70780009D01*
X45111381Y-70726353D01*
X45099995Y-70674011D01*
X45099995Y-68926011D01*
X45119997Y-68857890D01*
X45173653Y-68811397D01*
X45225995Y-68800011D01*
X45516395Y-68800011D01*
X45532180Y-68795376D01*
X45542079Y-68784143D01*
X45550279Y-68766952D01*
X45553272Y-68761077D01*
X45585113Y-68702434D01*
X45588411Y-68696723D01*
X45623307Y-68639777D01*
X45626901Y-68634243D01*
X45664680Y-68579275D01*
X45668555Y-68573941D01*
X45709192Y-68520980D01*
X45713343Y-68515854D01*
X45756683Y-68465107D01*
X45761098Y-68460203D01*
X45807093Y-68411734D01*
X45811760Y-68407067D01*
X45860166Y-68361133D01*
X45865068Y-68356719D01*
X45915819Y-68313375D01*
X45920945Y-68309224D01*
X45973877Y-68268609D01*
X45979213Y-68264733D01*
X46034255Y-68226904D01*
X46039788Y-68223311D01*
X46096700Y-68188436D01*
X46102414Y-68185137D01*
X46161086Y-68153282D01*
X46166962Y-68150288D01*
X46227154Y-68121578D01*
X46233180Y-68118895D01*
X46294890Y-68093334D01*
X46301046Y-68090971D01*
X46363931Y-68068701D01*
X46370207Y-68066662D01*
X46434201Y-68047706D01*
X46440573Y-68045998D01*
X46505526Y-68030404D01*
X46511981Y-68029032D01*
X46577624Y-68016867D01*
X46584138Y-68015836D01*
X46650293Y-68007127D01*
X46656853Y-68006437D01*
X46723363Y-68001203D01*
X46729948Y-68000858D01*
X46798351Y-67999066D01*
X46801650Y-67999023D01*
X46973994Y-67999022D01*
X47042115Y-68019024D01*
G37*
G36*
X53201646Y-48199043D02*
G01*
X53270046Y-48200831D01*
X53276642Y-48201177D01*
X53343174Y-48206415D01*
X53349731Y-48207104D01*
X53415854Y-48215809D01*
X53422367Y-48216840D01*
X53488022Y-48229007D01*
X53494475Y-48230379D01*
X53559363Y-48245956D01*
X53565737Y-48247664D01*
X53629776Y-48266633D01*
X53636053Y-48268672D01*
X53698989Y-48290961D01*
X53705146Y-48293325D01*
X53766807Y-48318867D01*
X53772831Y-48321549D01*
X53833027Y-48350261D01*
X53838904Y-48353255D01*
X53897581Y-48385113D01*
X53903294Y-48388412D01*
X53960240Y-48423308D01*
X53965774Y-48426902D01*
X54020742Y-48464681D01*
X54026076Y-48468556D01*
X54079037Y-48509193D01*
X54084163Y-48513343D01*
X54134920Y-48556691D01*
X54139823Y-48561106D01*
X54188229Y-48607040D01*
X54192896Y-48611707D01*
X54238891Y-48660176D01*
X54243306Y-48665080D01*
X54286646Y-48715827D01*
X54290797Y-48720953D01*
X54331434Y-48773914D01*
X54335309Y-48779248D01*
X54373088Y-48834216D01*
X54376682Y-48839750D01*
X54411578Y-48896696D01*
X54414876Y-48902408D01*
X54446713Y-48961044D01*
X54449706Y-48966917D01*
X54457686Y-48983646D01*
X54468669Y-48995901D01*
X54483065Y-48999998D01*
X54773995Y-48999998D01*
X54842116Y-49020000D01*
X54888609Y-49073656D01*
X54899995Y-49125998D01*
X54899995Y-50873998D01*
X54879993Y-50942119D01*
X54826337Y-50988612D01*
X54773995Y-50999998D01*
X54483599Y-50999998D01*
X54467812Y-51004633D01*
X54457915Y-51015865D01*
X54449703Y-51033080D01*
X54446709Y-51038955D01*
X54414878Y-51097579D01*
X54411582Y-51103289D01*
X54376706Y-51160204D01*
X54373113Y-51165736D01*
X54335316Y-51220733D01*
X54331438Y-51226071D01*
X54290764Y-51279079D01*
X54286610Y-51284209D01*
X54243265Y-51334957D01*
X54238852Y-51339858D01*
X54192904Y-51388276D01*
X54188240Y-51392940D01*
X54139855Y-51438855D01*
X54134956Y-51443266D01*
X54084208Y-51486611D01*
X54079080Y-51490764D01*
X54026072Y-51531439D01*
X54020734Y-51535317D01*
X53965769Y-51573093D01*
X53960239Y-51576684D01*
X53903337Y-51611555D01*
X53897623Y-51614854D01*
X53838955Y-51646709D01*
X53833079Y-51649704D01*
X53772838Y-51678439D01*
X53766810Y-51681123D01*
X53705084Y-51706691D01*
X53698922Y-51709056D01*
X53636021Y-51731329D01*
X53629748Y-51733367D01*
X53565737Y-51752327D01*
X53559367Y-51754034D01*
X53494509Y-51769605D01*
X53488056Y-51770976D01*
X53422374Y-51783149D01*
X53415858Y-51784181D01*
X53349693Y-51792891D01*
X53343131Y-51793581D01*
X53276579Y-51798817D01*
X53269994Y-51799162D01*
X53201637Y-51800952D01*
X53198339Y-51800995D01*
X53025995Y-51800995D01*
X52957874Y-51780993D01*
X52911381Y-51727337D01*
X52899995Y-51674995D01*
X52899995Y-48325000D01*
X52919997Y-48256879D01*
X52973653Y-48210386D01*
X53025995Y-48199000D01*
X53198353Y-48199000D01*
X53201646Y-48199043D01*
G37*
G36*
X53201661Y-67999044D02*
G01*
X53270014Y-68000855D01*
X53276560Y-68001199D01*
X53343125Y-68006436D01*
X53349690Y-68007126D01*
X53415909Y-68015845D01*
X53422424Y-68016877D01*
X53488067Y-68029044D01*
X53494521Y-68030416D01*
X53559409Y-68045996D01*
X53565778Y-68047703D01*
X53629782Y-68066662D01*
X53636058Y-68068701D01*
X53698943Y-68090971D01*
X53705099Y-68093334D01*
X53766809Y-68118895D01*
X53772838Y-68121579D01*
X53833079Y-68150314D01*
X53838955Y-68153309D01*
X53897623Y-68185164D01*
X53903337Y-68188463D01*
X53960239Y-68223334D01*
X53965770Y-68226926D01*
X54020742Y-68264708D01*
X54026076Y-68268583D01*
X54079028Y-68309213D01*
X54084156Y-68313366D01*
X54134957Y-68356754D01*
X54139861Y-68361169D01*
X54188283Y-68407121D01*
X54192948Y-68411786D01*
X54238884Y-68460194D01*
X54243299Y-68465097D01*
X54286647Y-68515854D01*
X54290797Y-68520980D01*
X54331434Y-68573941D01*
X54335309Y-68579275D01*
X54373088Y-68634243D01*
X54376682Y-68639777D01*
X54411578Y-68696723D01*
X54414877Y-68702436D01*
X54446739Y-68761120D01*
X54449733Y-68766998D01*
X54457679Y-68783658D01*
X54468660Y-68795913D01*
X54483059Y-68800011D01*
X54773995Y-68800011D01*
X54842116Y-68820013D01*
X54888609Y-68873669D01*
X54899995Y-68926011D01*
X54899995Y-70674011D01*
X54879993Y-70742132D01*
X54826337Y-70788625D01*
X54773995Y-70800011D01*
X54483605Y-70800011D01*
X54467820Y-70804646D01*
X54457921Y-70815879D01*
X54449710Y-70833093D01*
X54446717Y-70838967D01*
X54414879Y-70897605D01*
X54411582Y-70903316D01*
X54376706Y-70960231D01*
X54373113Y-70965763D01*
X54335316Y-71020760D01*
X54331438Y-71026098D01*
X54290764Y-71079106D01*
X54286610Y-71084236D01*
X54243265Y-71134984D01*
X54238852Y-71139885D01*
X54192904Y-71188303D01*
X54188240Y-71192967D01*
X54139859Y-71238878D01*
X54134957Y-71243291D01*
X54084156Y-71286679D01*
X54079028Y-71290832D01*
X54026076Y-71331462D01*
X54020742Y-71335337D01*
X53965770Y-71373119D01*
X53960239Y-71376711D01*
X53903337Y-71411582D01*
X53897623Y-71414881D01*
X53838955Y-71446736D01*
X53833079Y-71449731D01*
X53772838Y-71478466D01*
X53766809Y-71481150D01*
X53705099Y-71506711D01*
X53698943Y-71509074D01*
X53636058Y-71531344D01*
X53629782Y-71533383D01*
X53565778Y-71552342D01*
X53559409Y-71554049D01*
X53494521Y-71569629D01*
X53488067Y-71571001D01*
X53422424Y-71583168D01*
X53415909Y-71584200D01*
X53349690Y-71592919D01*
X53343124Y-71593609D01*
X53276578Y-71598844D01*
X53269994Y-71599189D01*
X53201637Y-71600979D01*
X53198338Y-71601022D01*
X53025994Y-71601021D01*
X52957874Y-71581019D01*
X52911381Y-71527363D01*
X52899995Y-71475021D01*
X52899995Y-68125001D01*
X52919997Y-68056880D01*
X52973653Y-68010387D01*
X53025994Y-67999001D01*
X53198323Y-67999000D01*
X53201661Y-67999044D01*
G37*
G36*
X53201668Y-61399044D02*
G01*
X53269999Y-61400846D01*
X53276560Y-61401190D01*
X53343125Y-61406427D01*
X53349690Y-61407117D01*
X53415909Y-61415836D01*
X53422425Y-61416868D01*
X53488065Y-61429035D01*
X53494514Y-61430406D01*
X53559366Y-61445975D01*
X53565738Y-61447682D01*
X53629735Y-61466638D01*
X53636010Y-61468677D01*
X53698986Y-61490978D01*
X53705146Y-61493343D01*
X53766807Y-61518885D01*
X53772831Y-61521567D01*
X53833027Y-61550279D01*
X53838903Y-61553273D01*
X53897575Y-61585128D01*
X53903289Y-61588427D01*
X53960201Y-61623302D01*
X53965733Y-61626895D01*
X54020790Y-61664734D01*
X54026128Y-61668612D01*
X54079062Y-61709230D01*
X54084191Y-61713383D01*
X54134931Y-61756721D01*
X54139828Y-61761130D01*
X54188228Y-61807057D01*
X54192896Y-61811725D01*
X54238891Y-61860194D01*
X54243306Y-61865098D01*
X54286646Y-61915845D01*
X54290797Y-61920971D01*
X54331434Y-61973932D01*
X54335309Y-61979266D01*
X54373088Y-62034234D01*
X54376682Y-62039768D01*
X54411578Y-62096714D01*
X54414876Y-62102425D01*
X54446717Y-62161068D01*
X54449710Y-62166943D01*
X54457682Y-62183655D01*
X54468663Y-62195909D01*
X54483060Y-62200006D01*
X54773995Y-62200006D01*
X54842116Y-62220008D01*
X54888609Y-62273664D01*
X54899995Y-62326006D01*
X54899995Y-64074006D01*
X54879993Y-64142127D01*
X54826337Y-64188620D01*
X54773995Y-64200006D01*
X54483603Y-64200006D01*
X54467817Y-64204641D01*
X54457919Y-64215873D01*
X54449703Y-64233098D01*
X54446708Y-64238976D01*
X54414875Y-64297603D01*
X54411578Y-64303313D01*
X54376682Y-64360259D01*
X54373088Y-64365793D01*
X54335309Y-64420761D01*
X54331434Y-64426095D01*
X54290797Y-64479056D01*
X54286647Y-64484182D01*
X54243299Y-64534939D01*
X54238884Y-64539842D01*
X54192950Y-64588248D01*
X54188283Y-64592915D01*
X54139820Y-64638904D01*
X54134920Y-64643316D01*
X54084190Y-64686645D01*
X54079062Y-64690797D01*
X54026128Y-64731415D01*
X54020790Y-64735293D01*
X53965733Y-64773132D01*
X53960201Y-64776725D01*
X53903289Y-64811600D01*
X53897575Y-64814899D01*
X53838903Y-64846754D01*
X53833027Y-64849748D01*
X53772835Y-64878458D01*
X53766809Y-64881141D01*
X53705099Y-64906702D01*
X53698943Y-64909065D01*
X53636058Y-64931335D01*
X53629782Y-64933374D01*
X53565778Y-64952333D01*
X53559409Y-64954040D01*
X53494516Y-64969621D01*
X53488061Y-64970993D01*
X53422377Y-64983167D01*
X53415861Y-64984199D01*
X53349731Y-64992905D01*
X53343174Y-64993594D01*
X53276642Y-64998832D01*
X53270052Y-64999178D01*
X53201636Y-65000970D01*
X53198336Y-65001013D01*
X53025994Y-65001012D01*
X52957874Y-64981010D01*
X52911381Y-64927354D01*
X52899995Y-64875012D01*
X52899995Y-61525001D01*
X52919997Y-61456880D01*
X52973653Y-61410387D01*
X53025994Y-61399001D01*
X53198345Y-61399000D01*
X53201668Y-61399044D01*
G37*
M02*
