%TF.GenerationSoftware,KiCad,Pcbnew,(6.0.0)*%
%TF.CreationDate,2022-12-15T23:51:33-05:00*%
%TF.ProjectId,Adafruit LED Sequin-WithRails,41646166-7275-4697-9420-4c4544205365,rev?*%
%TF.SameCoordinates,Original*%
%TF.FileFunction,Profile,NP*%
%FSLAX46Y46*%
G04 Gerber Fmt 4.6, Leading zero omitted, Abs format (unit mm)*
G04 Created by KiCad (PCBNEW (6.0.0)) date 2022-12-15 23:51:33*
%MOMM*%
%LPD*%
G01*
G04 APERTURE LIST*
%TA.AperFunction,Profile*%
%ADD10C,0.100000*%
%TD*%
G04 APERTURE END LIST*
D10*
X54413308Y-70900499D02*
X54448282Y-70836086D01*
X45534501Y-64200006D02*
X45551707Y-64236077D01*
X54241157Y-64537445D02*
X54288792Y-64481670D01*
X46726698Y-58399085D02*
X46800000Y-58401000D01*
X46653524Y-54806683D02*
X46580856Y-54816250D01*
X45918297Y-61711249D02*
X45862524Y-61758886D01*
X53963055Y-48425033D02*
X53900471Y-48386682D01*
X46437364Y-68046768D02*
X46367037Y-68067601D01*
X53836058Y-51648283D02*
X53900517Y-51613283D01*
X54137426Y-55158842D02*
X54081651Y-55111207D01*
X54465486Y-57600002D02*
X56598000Y-57600002D01*
X45862524Y-64641141D02*
X45918297Y-64688778D01*
X54081692Y-51488760D02*
X54137465Y-51441123D01*
X53199994Y-71601022D02*
X53273291Y-71599103D01*
X54413308Y-68699546D02*
X54374957Y-68636962D01*
X43400995Y-50999998D02*
X43400995Y-55600002D01*
X53419185Y-68016276D02*
X53346413Y-68006695D01*
X54448282Y-64236077D02*
X54465488Y-64200006D01*
X54374957Y-48836935D02*
X54333442Y-48776530D01*
X53199994Y-65001013D02*
X53273343Y-64999092D01*
X45586681Y-57700481D02*
X45625004Y-57763021D01*
X45918297Y-55111240D02*
X45862524Y-55158877D01*
X53419133Y-54816250D02*
X53346465Y-54806683D01*
X53491253Y-48229606D02*
X53419133Y-48216241D01*
X45711197Y-71081679D02*
X45758832Y-71137454D01*
X53900471Y-64813327D02*
X53963011Y-64775004D01*
X45666547Y-68576557D02*
X45625032Y-68636962D01*
X46726698Y-51799076D02*
X46800000Y-51801000D01*
X43400995Y-64200006D02*
X45534501Y-64200006D01*
X46800000Y-51801000D02*
X53199995Y-51800995D01*
X46036934Y-64774976D02*
X46099472Y-64813301D01*
X46580856Y-58383759D02*
X46653576Y-58393332D01*
X46580856Y-54816250D02*
X46508736Y-54829615D01*
X45534505Y-50999998D02*
X45551707Y-51036059D01*
X46508685Y-48229617D02*
X46437415Y-48246727D01*
X54333442Y-61976548D02*
X54288792Y-61918357D01*
X54333442Y-64423479D02*
X54374957Y-64363074D01*
X54081692Y-58088769D02*
X54137426Y-58041167D01*
X53900517Y-51613283D02*
X53963055Y-51574958D01*
X46800000Y-65001000D02*
X53199994Y-65001013D01*
X54081651Y-48511198D02*
X54023460Y-48466548D01*
X53200000Y-48199000D02*
X46799995Y-48198996D01*
X46163978Y-71448334D02*
X46230133Y-71479888D01*
X54465484Y-50999998D02*
X56598000Y-50999998D01*
X53769856Y-58279870D02*
X53836011Y-58248316D01*
X45551707Y-57636068D02*
X45586681Y-57700481D01*
X53769856Y-48320130D02*
X53702092Y-48292060D01*
X46726646Y-48200917D02*
X46653524Y-48206674D01*
X46653576Y-64993341D02*
X46726698Y-64999094D01*
X53963055Y-51574958D02*
X54023460Y-51533443D01*
X46437415Y-71553291D02*
X46508736Y-71570412D01*
X46800000Y-71601000D02*
X53199994Y-71601022D01*
X46036978Y-68225032D02*
X45976487Y-68266606D01*
X46508736Y-71570412D02*
X46580804Y-71583769D01*
X53900471Y-58213318D02*
X53963011Y-58174995D01*
X45809357Y-61809339D02*
X45758867Y-61862543D01*
X46230133Y-68120157D02*
X46163978Y-68151711D01*
X46230181Y-48320109D02*
X46163978Y-48351684D01*
X53491304Y-68029644D02*
X53419185Y-68016276D01*
X54241157Y-48662564D02*
X54190632Y-48609321D01*
X54288792Y-64481670D02*
X54333442Y-64423479D01*
X46800000Y-58401000D02*
X53199994Y-58401004D01*
X53769856Y-54920139D02*
X53702092Y-54892069D01*
X45918297Y-48511231D02*
X45862524Y-48558868D01*
X46580856Y-61416259D02*
X46508685Y-61429635D01*
X45976487Y-48466579D02*
X45918297Y-48511231D01*
X54465486Y-48999998D02*
X54448282Y-48963932D01*
X53346413Y-71593350D02*
X53419185Y-71583769D01*
X46653576Y-71593350D02*
X46726698Y-71599103D01*
X53491304Y-61429635D02*
X53419185Y-61416267D01*
X45809320Y-64590651D02*
X45862524Y-64641141D01*
X43400995Y-68800011D02*
X43400995Y-64200006D01*
X46580856Y-64983768D02*
X46653576Y-64993341D01*
X53632952Y-71532444D02*
X53702043Y-71507977D01*
X53273291Y-68000942D02*
X53200000Y-67999000D01*
X46099472Y-58213292D02*
X46163931Y-58248292D01*
X46437415Y-48246727D02*
X46367087Y-48267558D01*
X54333442Y-51223461D02*
X54374985Y-51163012D01*
X45918338Y-71288820D02*
X45976487Y-71333439D01*
X53562625Y-68046768D02*
X53491304Y-68029644D01*
X53632952Y-54867583D02*
X53562574Y-54846736D01*
X53419133Y-58383759D02*
X53491304Y-58370383D01*
X54448282Y-62163950D02*
X54413308Y-62099537D01*
X46297946Y-58307959D02*
X46367087Y-58332442D01*
X54288792Y-68518366D02*
X54241157Y-68462591D01*
X53562574Y-48246727D02*
X53491253Y-48229606D01*
X53963055Y-55025042D02*
X53900471Y-54986691D01*
X53702092Y-54892069D02*
X53632952Y-54867583D01*
X45758832Y-71137454D02*
X45809357Y-71190697D01*
X45625032Y-68636962D02*
X45586681Y-68699546D01*
X45976487Y-71333439D02*
X46036934Y-71374985D01*
X53419133Y-64983768D02*
X53491304Y-64970392D01*
X54190632Y-61809339D02*
X54137426Y-61758851D01*
X53273291Y-71599103D02*
X53346413Y-71593350D01*
X46297946Y-51707950D02*
X46367037Y-51732417D01*
X54241122Y-71137493D02*
X54288759Y-71081720D01*
X45976529Y-61666566D02*
X45918297Y-61711249D01*
X53900471Y-54986691D02*
X53836011Y-54951693D01*
X43400995Y-48198996D02*
X39402995Y-48198996D01*
X53200000Y-67999000D02*
X46799994Y-67999023D01*
X45711230Y-57881702D02*
X45758867Y-57937475D01*
X54081651Y-55111207D02*
X54023460Y-55066557D01*
X53702043Y-58307959D02*
X53769856Y-58279870D01*
X45534499Y-70800011D02*
X45551707Y-70836086D01*
X46163931Y-61551726D02*
X46099472Y-61586726D01*
X54137465Y-68358895D02*
X54081651Y-68311225D01*
X46099518Y-68186709D02*
X46036978Y-68225032D01*
X45976529Y-58133452D02*
X46036934Y-58174967D01*
X46580804Y-71583769D02*
X46653576Y-71593350D01*
X46437364Y-51753250D02*
X46508685Y-51770374D01*
X54081692Y-64688778D02*
X54137426Y-64641176D01*
X46653524Y-48206674D02*
X46580804Y-48216249D01*
X46799994Y-67999023D02*
X46726646Y-68000944D01*
X53273343Y-48200917D02*
X53200000Y-48199000D01*
X45551707Y-48963932D02*
X45534503Y-48999998D01*
X39402995Y-48198996D02*
X39402995Y-71601022D01*
X46508685Y-58370383D02*
X46580856Y-58383759D01*
X54374985Y-70963039D02*
X54413308Y-70900499D01*
X53346413Y-61406686D02*
X53273291Y-61400933D01*
X56598000Y-70800011D02*
X56598000Y-71601022D01*
X46036934Y-48425033D02*
X45976487Y-48466579D01*
X46163978Y-48351684D02*
X46099518Y-48386682D01*
X53632952Y-58332426D02*
X53702043Y-58307959D01*
X53346465Y-64993335D02*
X53419133Y-64983768D01*
X53963055Y-71374985D02*
X54023460Y-71333470D01*
X53491304Y-51770374D02*
X53562574Y-51753264D01*
X54465481Y-62200006D02*
X54448282Y-62163950D01*
X46036934Y-61625051D02*
X45976529Y-61666566D01*
X53702043Y-68092068D02*
X53632952Y-68067601D01*
X46580856Y-68016268D02*
X46508736Y-68029633D01*
X46230133Y-58279870D02*
X46297946Y-58307959D01*
X56598000Y-68800011D02*
X54465479Y-68800011D01*
X45586681Y-48899519D02*
X45551707Y-48963932D01*
X45809357Y-51390670D02*
X45862563Y-51441158D01*
X46367087Y-71532460D02*
X46437415Y-71553291D01*
X53346465Y-54806683D02*
X53273343Y-54800926D01*
X45625032Y-51163056D02*
X45666547Y-51223461D01*
X45976487Y-68266606D02*
X45918338Y-68311225D01*
X53346465Y-58393326D02*
X53419133Y-58383759D01*
X45758867Y-61862543D02*
X45711230Y-61918316D01*
X54241157Y-61862582D02*
X54190632Y-61809339D01*
X54241122Y-51337466D02*
X54288759Y-51281693D01*
X53702043Y-64907968D02*
X53769856Y-64879879D01*
X45551707Y-62163950D02*
X45534508Y-62200006D01*
X56598000Y-62200006D02*
X54465481Y-62200006D01*
X53836011Y-48351684D02*
X53769856Y-48320130D01*
X45666547Y-55376539D02*
X45625004Y-55436988D01*
X54241157Y-57937436D02*
X54288792Y-57881661D01*
X54413308Y-55499528D02*
X54374957Y-55436944D01*
X46367087Y-61467576D02*
X46297946Y-61492059D01*
X54081692Y-61711249D02*
X54023502Y-61666597D01*
X45809357Y-71190697D02*
X45862563Y-71241185D01*
X45809357Y-68409348D02*
X45758832Y-68462591D01*
X46367087Y-58332442D02*
X46437415Y-58353273D01*
X43400995Y-48198996D02*
X43400995Y-48999998D01*
X46580856Y-51783750D02*
X46653576Y-51793323D01*
X45809320Y-48609358D02*
X45758832Y-48662564D01*
X56598000Y-71601022D02*
X60598000Y-71601022D01*
X54190632Y-51390670D02*
X54241122Y-51337466D01*
X54190669Y-68409385D02*
X54137465Y-68358895D01*
X45586681Y-64300490D02*
X45625004Y-64363030D01*
X46230133Y-54920139D02*
X46163978Y-54951693D01*
X53562625Y-71553277D02*
X53632952Y-71532444D01*
X45625004Y-55436988D02*
X45586681Y-55499528D01*
X54413308Y-48899519D02*
X54374957Y-48836935D01*
X53273343Y-58399083D02*
X53346465Y-58393326D01*
X53769856Y-64879879D02*
X53836011Y-64848325D01*
X45976487Y-55066588D02*
X45918297Y-55111240D01*
X46799994Y-61399014D02*
X46726698Y-61400933D01*
X45862524Y-58041132D02*
X45918297Y-58088769D01*
X45666547Y-61976548D02*
X45625004Y-62036997D01*
X46297946Y-64907968D02*
X46367087Y-64932451D01*
X43400995Y-70800011D02*
X45534499Y-70800011D01*
X54137426Y-64641176D02*
X54190669Y-64590651D01*
X45666547Y-57823470D02*
X45711230Y-57881702D01*
X53419185Y-61416267D02*
X53346413Y-61406686D01*
X45551707Y-55563941D02*
X45534505Y-55600002D01*
X54190632Y-55209330D02*
X54137426Y-55158842D01*
X46099518Y-51613309D02*
X46163978Y-51648307D01*
X46099472Y-61586726D02*
X46036934Y-61625051D01*
X46099518Y-48386682D02*
X46036934Y-48425033D01*
X45711230Y-61918316D02*
X45666547Y-61976548D01*
X45862524Y-61758886D02*
X45809357Y-61809339D01*
X53346465Y-48206674D02*
X53273343Y-48200917D01*
X54465479Y-68800011D02*
X54448306Y-68764006D01*
X45711197Y-68518366D02*
X45666547Y-68576557D01*
X45534510Y-68800011D02*
X43400995Y-68800011D01*
X54241157Y-55262573D02*
X54190632Y-55209330D01*
X56598000Y-64200006D02*
X56598000Y-68800011D01*
X45586681Y-51100472D02*
X45625032Y-51163056D01*
X45551707Y-68763959D02*
X45534510Y-68800011D01*
X56598000Y-55600002D02*
X54465484Y-55600002D01*
X46230133Y-64879879D02*
X46297946Y-64907968D01*
X53836011Y-54951693D02*
X53769856Y-54920139D01*
X43400995Y-57600002D02*
X43400995Y-62200006D01*
X46508736Y-68029633D02*
X46437364Y-68046768D01*
X54241157Y-68462591D02*
X54190669Y-68409385D01*
X54413308Y-64300490D02*
X54448282Y-64236077D01*
X54288759Y-51281693D02*
X54333442Y-51223461D01*
X53419185Y-71583769D02*
X53491304Y-71570401D01*
X45666547Y-48776530D02*
X45625004Y-48836979D01*
X46099472Y-64813301D02*
X46163931Y-64848301D01*
X45918297Y-64688778D02*
X45976529Y-64733461D01*
X53491304Y-64970392D02*
X53562625Y-64953268D01*
X54374957Y-57763065D02*
X54413308Y-57700481D01*
X54465490Y-70800011D02*
X56598000Y-70800011D01*
X54081651Y-71288820D02*
X54137465Y-71241150D01*
X54288792Y-61918357D02*
X54241157Y-61862582D01*
X53900517Y-68186735D02*
X53836058Y-68151735D01*
X46367037Y-68067601D02*
X46297946Y-68092068D01*
X45534503Y-48999998D02*
X43400995Y-48999998D01*
X45862563Y-71241185D02*
X45918338Y-71288820D01*
X60598000Y-48198996D02*
X56598000Y-48198996D01*
X53900517Y-71413310D02*
X53963055Y-71374985D01*
X46099518Y-71413336D02*
X46163978Y-71448334D01*
X53273343Y-54800926D02*
X53200000Y-54799000D01*
X53769856Y-51679861D02*
X53836058Y-51648283D01*
X54448282Y-51036059D02*
X54465484Y-50999998D01*
X45625004Y-62036997D02*
X45586681Y-62099537D01*
X43400995Y-71601022D02*
X43400995Y-70800011D01*
X54023460Y-55066557D02*
X53963055Y-55025042D01*
X54333442Y-71023488D02*
X54374985Y-70963039D01*
X45809357Y-55209330D02*
X45758867Y-55262534D01*
X46437415Y-54846736D02*
X46367037Y-54867583D01*
X54465484Y-55600002D02*
X54448282Y-55563941D01*
X56598000Y-48999998D02*
X54465486Y-48999998D01*
X56598000Y-57600002D02*
X56598000Y-62200006D01*
X45586681Y-68699546D02*
X45551707Y-68763959D01*
X54374957Y-62036953D02*
X54333442Y-61976548D01*
X45625004Y-57763021D02*
X45666547Y-57823470D01*
X53632952Y-64932435D02*
X53702043Y-64907968D01*
X53200000Y-54799000D02*
X46799994Y-54799005D01*
X53836058Y-71448310D02*
X53900517Y-71413310D01*
X45862524Y-55158877D02*
X45809357Y-55209330D01*
X46367037Y-54867583D02*
X46297897Y-54892069D01*
X54190669Y-57990642D02*
X54241157Y-57937436D01*
X46036934Y-71374985D02*
X46099518Y-71413336D01*
X53769856Y-71479888D02*
X53836058Y-71448310D01*
X45551707Y-64236077D02*
X45586681Y-64300490D01*
X45758832Y-48662564D02*
X45711197Y-48718339D01*
X53836011Y-58248316D02*
X53900471Y-58213318D01*
X53199994Y-58401004D02*
X53273343Y-58399083D01*
X45918297Y-51488760D02*
X45976487Y-51533412D01*
X54190669Y-64590651D02*
X54241157Y-64537445D01*
X46367037Y-51732417D02*
X46437364Y-51753250D01*
X54190632Y-48609321D02*
X54137426Y-48558833D01*
X45976529Y-64733461D02*
X46036934Y-64774976D01*
X46653576Y-68006695D02*
X46580856Y-68016268D01*
X53702043Y-71507977D02*
X53769856Y-71479888D01*
X46437415Y-64953282D02*
X46508685Y-64970392D01*
X53346413Y-68006695D02*
X53273291Y-68000942D01*
X54288792Y-57881661D02*
X54333442Y-57823470D01*
X46297897Y-71507958D02*
X46367087Y-71532460D01*
X46653576Y-61406686D02*
X46580856Y-61416259D01*
X54288792Y-48718339D02*
X54241157Y-48662564D01*
X53491304Y-58370383D02*
X53562625Y-58353259D01*
X54374985Y-51163012D02*
X54413308Y-51100472D01*
X60598000Y-71601022D02*
X60598000Y-48198996D01*
X53836011Y-61551702D02*
X53769856Y-61520148D01*
X53199995Y-51800995D02*
X53273291Y-51799076D01*
X46726698Y-61400933D02*
X46653576Y-61406686D01*
X54465488Y-64200006D02*
X56598000Y-64200006D01*
X45711230Y-55318307D02*
X45666547Y-55376539D01*
X46653576Y-58393332D02*
X46726698Y-58399085D01*
X45918338Y-68311225D02*
X45862563Y-68358860D01*
X54333442Y-57823470D02*
X54374957Y-57763065D01*
X53900471Y-48386682D02*
X53836011Y-48351684D01*
X54448282Y-70836086D02*
X54465490Y-70800011D01*
X45586681Y-62099537D02*
X45551707Y-62163950D01*
X53562625Y-64953268D02*
X53632952Y-64932435D01*
X46437415Y-58353273D02*
X46508685Y-58370383D01*
X45551707Y-70836086D02*
X45586681Y-70900499D01*
X46163931Y-64848301D02*
X46230133Y-64879879D01*
X53769856Y-68120157D02*
X53702043Y-68092068D01*
X46437415Y-61446745D02*
X46367087Y-61467576D01*
X53491253Y-54829615D02*
X53419133Y-54816250D01*
X54448282Y-57636068D02*
X54465486Y-57600002D01*
X53702043Y-51707950D02*
X53769856Y-51679861D01*
X53562574Y-61446745D02*
X53491304Y-61429635D01*
X53562625Y-58353259D02*
X53632952Y-58332426D01*
X54288792Y-55318348D02*
X54241157Y-55262573D01*
X54137465Y-71241150D02*
X54190632Y-71190697D01*
X45551707Y-51036059D02*
X45586681Y-51100472D01*
X45758867Y-64537484D02*
X45809320Y-64590651D01*
X46508685Y-51770374D02*
X46580856Y-51783750D01*
X54448282Y-48963932D02*
X54413308Y-48899519D01*
X45625004Y-48836979D02*
X45586681Y-48899519D01*
X45758867Y-57937475D02*
X45809320Y-57990642D01*
X45534505Y-55600002D02*
X43400995Y-55600002D01*
X54023460Y-68266575D02*
X53963055Y-68225060D01*
X46799994Y-54799005D02*
X46726646Y-54800926D01*
X54137426Y-61758851D02*
X54081692Y-61711249D01*
X46297946Y-68092068D02*
X46230133Y-68120157D01*
X54448282Y-55563941D02*
X54413308Y-55499528D01*
X53562574Y-51753264D02*
X53632902Y-51732433D01*
X53963011Y-58174995D02*
X54023502Y-58133421D01*
X46580804Y-48216249D02*
X46508685Y-48229617D01*
X53963011Y-61625023D02*
X53900471Y-61586700D01*
X45534508Y-62200006D02*
X43400995Y-62200006D01*
X45625032Y-70963083D02*
X45666547Y-71023488D01*
X46230133Y-71479888D02*
X46297897Y-71507958D01*
X46036934Y-58174967D02*
X46099472Y-58213292D01*
X54413308Y-51100472D02*
X54448282Y-51036059D01*
X54448306Y-68764006D02*
X54413308Y-68699546D01*
X53963011Y-64775004D02*
X54023502Y-64733430D01*
X45666547Y-64423479D02*
X45711230Y-64481711D01*
X54288759Y-71081720D02*
X54333442Y-71023488D01*
X54023460Y-71333470D02*
X54081651Y-71288820D01*
X46163978Y-51648307D02*
X46230133Y-51679861D01*
X53562574Y-54846736D02*
X53491253Y-54829615D01*
X54023502Y-64733430D02*
X54081692Y-64688778D01*
X53419133Y-51783750D02*
X53491304Y-51770374D01*
X45862524Y-48558868D02*
X45809320Y-48609358D01*
X46508685Y-64970392D02*
X46580856Y-64983768D01*
X45758867Y-55262534D02*
X45711230Y-55318307D01*
X45534503Y-57600002D02*
X45551707Y-57636068D01*
X46163978Y-54951693D02*
X46099518Y-54986691D01*
X54137426Y-58041167D02*
X54190669Y-57990642D01*
X53632902Y-51732433D02*
X53702043Y-51707950D01*
X45918297Y-58088769D02*
X45976529Y-58133452D01*
X53702092Y-61492078D02*
X53632902Y-61467576D01*
X54190632Y-71190697D02*
X54241122Y-71137493D01*
X54137426Y-48558833D02*
X54081651Y-48511198D01*
X53273343Y-64999092D02*
X53346465Y-64993335D01*
X46230133Y-61520148D02*
X46163931Y-61551726D01*
X54333442Y-68576557D02*
X54288792Y-68518366D01*
X46508736Y-54829615D02*
X46437415Y-54846736D01*
X46726698Y-71599103D02*
X46800000Y-71601000D01*
X45625004Y-64363030D02*
X45666547Y-64423479D01*
X53491304Y-71570401D02*
X53562625Y-71553277D01*
X46726698Y-64999094D02*
X46800000Y-65001000D01*
X54374957Y-68636962D02*
X54333442Y-68576557D01*
X46163978Y-68151711D02*
X46099518Y-68186709D01*
X46230133Y-51679861D02*
X46297946Y-51707950D01*
X46508685Y-61429635D02*
X46437415Y-61446745D01*
X53273291Y-51799076D02*
X53346413Y-51793323D01*
X46799995Y-48198996D02*
X46726646Y-48200917D01*
X54374957Y-55436944D02*
X54333442Y-55376539D01*
X46367087Y-64932451D02*
X46437415Y-64953282D01*
X53200000Y-61399000D02*
X46799994Y-61399014D01*
X46163931Y-58248292D02*
X46230133Y-58279870D01*
X54137465Y-51441123D02*
X54190632Y-51390670D01*
X54413308Y-57700481D02*
X54448282Y-57636068D01*
X54023460Y-51533443D02*
X54081692Y-51488760D01*
X54023502Y-58133421D02*
X54081692Y-58088769D01*
X45809320Y-57990642D02*
X45862524Y-58041132D01*
X54333442Y-55376539D02*
X54288792Y-55318348D01*
X53963055Y-68225060D02*
X53900517Y-68186735D01*
X53702092Y-48292060D02*
X53632952Y-48267574D01*
X46036978Y-51574986D02*
X46099518Y-51613309D01*
X53632952Y-48267574D02*
X53562574Y-48246727D01*
X45666547Y-71023488D02*
X45711197Y-71081679D01*
X46653576Y-51793323D02*
X46726698Y-51799076D01*
X53632902Y-61467576D02*
X53562574Y-61446745D01*
X53900471Y-61586700D02*
X53836011Y-61551702D01*
X45758832Y-51337427D02*
X45809357Y-51390670D01*
X45586681Y-55499528D02*
X45551707Y-55563941D01*
X46297897Y-54892069D02*
X46230133Y-54920139D01*
X45666547Y-51223461D02*
X45711197Y-51281652D01*
X54023460Y-48466548D02*
X53963055Y-48425033D01*
X53836058Y-68151735D02*
X53769856Y-68120157D01*
X54413308Y-62099537D02*
X54374957Y-62036953D01*
X53273291Y-61400933D02*
X53200000Y-61399000D01*
X46726646Y-68000944D02*
X46653576Y-68006695D01*
X39402995Y-71601022D02*
X43400995Y-71601022D01*
X43400995Y-50999998D02*
X45534505Y-50999998D01*
X45711197Y-51281652D02*
X45758832Y-51337427D01*
X46297946Y-48292041D02*
X46230181Y-48320109D01*
X53346413Y-51793323D02*
X53419133Y-51783750D01*
X45711197Y-48718339D02*
X45666547Y-48776530D01*
X45862563Y-51441158D02*
X45918297Y-51488760D01*
X46726646Y-54800926D02*
X46653524Y-54806683D01*
X46367087Y-48267558D02*
X46297946Y-48292041D01*
X53769856Y-61520148D02*
X53702092Y-61492078D01*
X46099518Y-54986691D02*
X46036934Y-55025042D01*
X45976487Y-51533412D02*
X46036978Y-51574986D01*
X54081651Y-68311225D02*
X54023460Y-68266575D01*
X56598000Y-48198996D02*
X56598000Y-48999998D01*
X45862563Y-68358860D02*
X45809357Y-68409348D01*
X53419133Y-48216241D02*
X53346465Y-48206674D01*
X56598000Y-50999998D02*
X56598000Y-55600002D01*
X53632952Y-68067601D02*
X53562625Y-68046768D01*
X54374957Y-64363074D02*
X54413308Y-64300490D01*
X43400995Y-57600002D02*
X45534503Y-57600002D01*
X53836011Y-64848325D02*
X53900471Y-64813327D01*
X45758832Y-68462591D02*
X45711197Y-68518366D01*
X45586681Y-70900499D02*
X45625032Y-70963083D01*
X54333442Y-48776530D02*
X54288792Y-48718339D01*
X54023502Y-61666597D02*
X53963011Y-61625023D01*
X46036934Y-55025042D02*
X45976487Y-55066588D01*
X45711230Y-64481711D02*
X45758867Y-64537484D01*
X46297946Y-61492059D02*
X46230133Y-61520148D01*
M02*
